<svg xmlns="http://www.w3.org/2000/svg" xmlns:xlink="http://www.w3.org/1999/xlink" width="511.998" height="503.508" viewBox="0 0 511.998 503.508">
  <defs>
    <linearGradient id="linear-gradient" x1="0.09" y1="0.603" x2="0.593" y2="0.76" gradientUnits="objectBoundingBox">
      <stop offset="0" stop-color="#ffc107"/>
      <stop offset="1" stop-color="#ff9800"/>
    </linearGradient>
  </defs>
  <g id="_002-location" data-name="002-location" transform="translate(0 -5.246)">
    <g id="Group_73" data-name="Group 73">
      <g id="Group_72" data-name="Group 72">
        <path id="Path_57" data-name="Path 57" d="M167.974,351.473c21.086,29.73,42.138,56.32,56.09,73.446,2.031,2.492,3.934,4.8,5.777,7.031h-42.1a8.533,8.533,0,1,0,0,17.066H324.27a8.533,8.533,0,1,0,0-17.066h-42.1c1.843-2.227,3.746-4.54,5.786-7.031,13.943-17.067,34.987-43.716,56.081-73.446A749.754,749.754,0,0,0,400.4,260.619c17.425-34.219,26.266-62.626,26.266-84.437a170.549,170.549,0,0,0-49.98-120.841A8.533,8.533,0,1,0,364.616,67.4,153.55,153.55,0,0,1,409.6,176.181c0,19.1-8.209,44.9-24.4,76.689a732.812,732.812,0,0,1-55.091,88.747c-20.8,29.346-41.6,55.637-55.381,72.533-4.582,5.615-8.7,10.581-12.22,14.78a8.644,8.644,0,0,1-13,0c-3.516-4.2-7.637-9.165-12.22-14.78-13.781-16.887-34.577-43.179-55.381-72.533a732.814,732.814,0,0,1-55.091-88.747c-16.213-31.787-24.4-57.591-24.4-76.689A153.643,153.643,0,0,1,315.825,34.434a8.536,8.536,0,0,0,6.664-15.718A170.732,170.732,0,0,0,85.34,176.181c0,21.811,8.841,50.219,26.266,84.48A749.237,749.237,0,0,0,167.974,351.473Z" fill="url(#linear-gradient)"/>
        <path id="Path_58" data-name="Path 58" d="M256,99.151a8.533,8.533,0,0,0,0-17.066,85.333,85.333,0,1,0,60.339,24.994,8.533,8.533,0,1,0-12.066,12.066A68.266,68.266,0,1,1,256,99.151Z" fill="url(#linear-gradient)"/>
        <path id="Path_59" data-name="Path 59" d="M508.786,470.957l-52.48-93.867a26.522,26.522,0,0,0-23.219-13.406H372.27a8.533,8.533,0,0,0,0,17.066h60.817a9.464,9.464,0,0,1,8.337,4.659l52.463,93.867a7.679,7.679,0,0,1-.077,7.885,9.387,9.387,0,0,1-8.26,4.523H26.457a9.387,9.387,0,0,1-8.252-4.523,7.681,7.681,0,0,1-.077-7.885l52.463-93.867a9.454,9.454,0,0,1,8.328-4.659h60.817a8.533,8.533,0,1,0,0-17.066H78.92A26.537,26.537,0,0,0,55.684,377.09L3.212,470.957A24.748,24.748,0,0,0,3.477,495.8a26.284,26.284,0,0,0,22.98,12.954H485.55A26.282,26.282,0,0,0,508.522,495.8,24.746,24.746,0,0,0,508.786,470.957Z" fill="url(#linear-gradient)"/>
        <path id="Path_60" data-name="Path 60" d="M418.137,406.351H384a8.583,8.583,0,0,0-4.736,1.434l-25.6,17.067a8.535,8.535,0,0,0,9.472,14.2l23.424-15.633h31.573a8.534,8.534,0,0,0,0-17.068Z" fill="url(#linear-gradient)"/>
        <path id="Path_61" data-name="Path 61" d="M366.937,466.084a8.533,8.533,0,0,0,8.533,8.533h68.267a8.533,8.533,0,0,0,0-17.066H375.47A8.532,8.532,0,0,0,366.937,466.084Z" fill="url(#linear-gradient)"/>
        <path id="Path_62" data-name="Path 62" d="M153.6,440.484a8.533,8.533,0,0,0,4.745-15.633l-25.6-17.067A8.586,8.586,0,0,0,128,406.35H93.87a8.533,8.533,0,1,0,0,17.066h31.573l23.45,15.633A8.516,8.516,0,0,0,153.6,440.484Z" fill="url(#linear-gradient)"/>
        <path id="Path_63" data-name="Path 63" d="M68.27,457.551a8.533,8.533,0,1,0,0,17.066h68.267a8.533,8.533,0,1,0,0-17.066Z" fill="url(#linear-gradient)"/>
      </g>
    </g>
  </g>
</svg>
