<svg id="surface1" xmlns="http://www.w3.org/2000/svg" xmlns:xlink="http://www.w3.org/1999/xlink" width="373.698" height="503.508" viewBox="0 0 373.698 503.508">
  <defs>
    <linearGradient id="linear-gradient" x1="0.09" y1="0.603" x2="0.593" y2="0.76" gradientUnits="objectBoundingBox">
      <stop offset="0" stop-color="#ffc107"/>
      <stop offset="1" stop-color="#ff9800"/>
    </linearGradient>
  </defs>
  <path id="Path_78" data-name="Path 78" d="M334.361,193.741V147.512C334.361,66.173,268.188,0,186.849,0S39.337,66.173,39.337,147.512v46.228A49.249,49.249,0,0,0,0,241.92v55.828a9.834,9.834,0,0,0,19.668,0V241.92a29.535,29.535,0,0,1,29.5-29.5H324.527a29.535,29.535,0,0,1,29.5,29.5V454.338a29.55,29.55,0,0,1-19.668,27.812V422.868a9.834,9.834,0,0,0-19.668,0V483.84H49.171a29.535,29.535,0,0,1-29.5-29.5v-77.69a9.834,9.834,0,0,0-19.668,0v77.69a49.226,49.226,0,0,0,49.171,49.171H324.527A49.227,49.227,0,0,0,373.7,454.338V241.92A49.249,49.249,0,0,0,334.361,193.741Zm-222.252-.991V147.512a74.74,74.74,0,0,1,149.479,0v45.237Zm169.147,0V147.512a94.408,94.408,0,0,0-188.816,0v45.237H59V147.512a127.844,127.844,0,0,1,255.688,0v45.237Zm0,0" fill="url(#linear-gradient)"/>
  <path id="Path_79" data-name="Path 79" d="M10,352.488a10,10,0,1,0-10-10,10,10,0,0,0,10,10Zm0,0" transform="translate(0 -5.739)" fill="url(#linear-gradient)"/>
  <path id="Path_80" data-name="Path 80" d="M190,458a30.033,30.033,0,0,0,30-30V374.9a54,54,0,1,0-60-.171V428A30.033,30.033,0,0,0,190,458ZM156.129,329.914a34,34,0,1,1,49.348,30.336A9.995,9.995,0,0,0,200,369.168V428a10,10,0,0,1-20,0V369.035a10,10,0,0,0-5.418-8.887A33.9,33.9,0,0,1,156.129,329.914Zm0,0" transform="translate(-3.154 -8.492)" fill="url(#linear-gradient)"/>
  <path id="Path_81" data-name="Path 81" d="M330,399a10,10,0,1,0-7.07-2.93A10.055,10.055,0,0,0,330,399Zm0,0" transform="translate(-6.302 -6.541)" fill="url(#linear-gradient)"/>
</svg>
