<svg xmlns="http://www.w3.org/2000/svg" xmlns:xlink="http://www.w3.org/1999/xlink" width="549.271" height="503.508" viewBox="0 0 549.271 503.508">
  <defs>
    <linearGradient id="linear-gradient" x1="0.09" y1="0.603" x2="0.593" y2="0.76" gradientUnits="objectBoundingBox">
      <stop offset="0" stop-color="#ffc107"/>
      <stop offset="1" stop-color="#ff9800"/>
    </linearGradient>
  </defs>
  <g id="_001-alarm" data-name="001-alarm" transform="translate(0 -2.5)">
    <path id="Path_51" data-name="Path 51" d="M409.081,267.981V185.646C409.5,122.873,364.2,81.238,325.269,64.659a207.443,207.443,0,0,0-34.33-11.132V48.273C290.939,23.034,268.9,2.5,241.812,2.5s-49.127,20.534-49.127,45.773v6.051a204.009,204.009,0,0,0-30.911,10.418c-43.016,18.474-86.6,63-86.995,120.849v82.391c0,58.479-22.166,108.655-65.88,149.136a8.738,8.738,0,0,0-2.447,9.246,9.637,9.637,0,0,0,7.7,6.271l93.254,15c17.371,2.792,33.367,5.081,48.587,6.967,17.145,31.309,50.817,51.4,87.6,51.4s70.478-20.1,87.614-51.43c15.161-1.877,31.078-4.156,48.351-6.939l93.244-15a9.635,9.635,0,0,0,7.7-6.271,8.706,8.706,0,0,0-2.447-9.246C432.3,374.723,409.081,324.547,409.081,267.981ZM212.335,48.273c0-15.142,13.225-27.464,29.476-27.464s29.476,12.322,29.476,27.464v1.666a209.517,209.517,0,0,0-58.953.43ZM243.61,487.69a80.666,80.666,0,0,1-63.05-30.347c21.96,2.106,42.456,3.167,62.942,3.167,20.565,0,41.129-1.062,63.178-3.195A80.689,80.689,0,0,1,243.61,487.69Zm132.624-58.1c-18.855,3.03-36.138,5.493-52.468,7.433H323.7c-7.2.851-14.2,1.593-21.046,2.234-.059,0-.108.009-.167.009-6.278.586-12.41,1.062-18.482,1.465-1.14.073-2.279.146-3.409.211-5.257.32-10.454.577-15.622.76-1.051.037-2.112.092-3.164.119-12.223.384-24.279.384-36.492.009-1.091-.037-2.191-.092-3.282-.128-5.08-.192-10.2-.43-15.377-.751-1.228-.073-2.456-.146-3.694-.229-5.885-.394-11.84-.851-17.922-1.419l-.668-.055c-6.8-.632-13.736-1.373-20.869-2.215h-.088c-16.389-1.932-33.741-4.412-52.674-7.452l-75.263-12.1c39.135-41.69,58.953-91.893,58.953-149.493V185.646c.334-49.755,38.2-88.222,75.568-104.279a184.657,184.657,0,0,1,34.36-10.83c.1-.018.206-.009.3-.027a191.446,191.446,0,0,1,74.477-.623c.128.027.255-.027.383-.009A187.041,187.041,0,0,1,317.1,81.311C353.35,96.755,389.773,134.966,389.43,185.6v82.391c0,55.229,21.37,106.586,62.028,149.5Z" transform="translate(32.236)" fill="url(#linear-gradient)"/>
    <path id="Path_52" data-name="Path 52" d="M135.366,20.977C110.672,9.691,80.433,9.678,55.9,20.99,41.917,27.439,18.191,46.308,18,76.139a6.375,6.375,0,0,0,6.334,6.411h.038a6.371,6.371,0,0,0,6.373-6.334c.147-23.432,19.239-38.459,30.493-43.653,21.221-9.795,47.451-9.769,68.819,0a6.372,6.372,0,1,0,5.308-11.586Z" transform="translate(169.987 88.574)" fill="url(#linear-gradient)"/>
    <path id="Path_53" data-name="Path 53" d="M30.6,24.369a6.366,6.366,0,0,0-9.011,0,73.879,73.879,0,0,0,0,104.385,6.372,6.372,0,0,0,9.011-9.011,61.14,61.14,0,0,1,0-86.363A6.377,6.377,0,0,0,30.6,24.369Z" transform="translate(0 187.906)" fill="url(#linear-gradient)"/>
    <path id="Path_54" data-name="Path 54" d="M25.55,105.371a6.373,6.373,0,0,0,4.505-10.878,41.84,41.84,0,0,1,0-59.113,6.372,6.372,0,1,0-9.011-9.011,54.606,54.606,0,0,0,0,77.135A6.329,6.329,0,0,0,25.55,105.371Z" transform="translate(27.375 197.753)" fill="url(#linear-gradient)"/>
    <path id="Path_55" data-name="Path 55" d="M65.785,24.369a6.372,6.372,0,0,0-9.011,9.011,61.14,61.14,0,0,1,0,86.363,6.372,6.372,0,1,0,9.011,9.011,73.879,73.879,0,0,0,0-104.385Z" transform="translate(461.896 187.906)" fill="url(#linear-gradient)"/>
    <path id="Path_56" data-name="Path 56" d="M52.564,26.369a6.366,6.366,0,0,0,0,9.011,41.84,41.84,0,0,1,0,59.113,6.372,6.372,0,1,0,9.011,9.011,54.606,54.606,0,0,0,0-77.135A6.366,6.366,0,0,0,52.564,26.369Z" transform="translate(439.277 197.753)" fill="url(#linear-gradient)"/>
  </g>
</svg>
