<svg xmlns="http://www.w3.org/2000/svg" xmlns:xlink="http://www.w3.org/1999/xlink" width="443.602" height="503.508" viewBox="0 0 443.602 503.508">
  <defs>
    <linearGradient id="linear-gradient" x1="0.09" y1="0.603" x2="0.593" y2="0.76" gradientUnits="objectBoundingBox">
      <stop offset="0" stop-color="#ffc107"/>
      <stop offset="1" stop-color="#ff9800"/>
    </linearGradient>
  </defs>
  <g id="_004-save-money" data-name="004-save-money" transform="translate(-0.36)">
    <path id="Path_72" data-name="Path 72" d="M220.867,266.176a7.616,7.616,0,0,0-2.742-.094,18.188,18.188,0,0,1-16.086-18.035,8,8,0,0,0-16,0A34.224,34.224,0,0,0,211.2,281v8a8,8,0,0,0,16,0v-7.516a34.162,34.162,0,0,0-7-67.6,18.164,18.164,0,1,1,18.164-18.164,8,8,0,0,0,16,0A34.225,34.225,0,0,0,227.2,162.281V155a8,8,0,0,0-16,0v7.77a34.16,34.16,0,0,0,9,67.113,18.153,18.153,0,0,1,.664,36.293Zm0,0" transform="translate(7.148 6.873)" fill="url(#linear-gradient)"/>
    <path id="Path_73" data-name="Path 73" d="M104.195,222.5A116.008,116.008,0,1,0,220.2,106.492,116.007,116.007,0,0,0,104.195,222.5ZM220.2,122.492A100.008,100.008,0,1,1,120.195,222.5,100.006,100.006,0,0,1,220.2,122.492Zm0,0" transform="translate(7.307 6.576)" fill="url(#linear-gradient)"/>
    <path id="Path_74" data-name="Path 74" d="M387.8,358.23l-64.7,29.609a52.913,52.913,0,0,0-44.924-26.852l-59.725-1.59a64.7,64.7,0,0,1-27.144-6.789l-6.077-3.051a110.277,110.277,0,0,0-99.289.1l.379-13.336a8.116,8.116,0,0,0-8.029-8.219L12.8,326.359a8.146,8.146,0,0,0-8.481,7.777L.363,473.347a8.116,8.116,0,0,0,8.029,8.219l65.491,1.746h.226a8.141,8.141,0,0,0,8.259-7.781l.19-6.66,17.014-8.824a30.03,30.03,0,0,1,21.781-2.309l101.6,27.621c.177.051.355.09.536.129a113.474,113.474,0,0,0,68.363-7.5,7.748,7.748,0,0,0,1.024-.547l147.311-92.3a7.858,7.858,0,0,0,2.706-10.656c-10.937-18.8-35.193-25.957-55.095-16.258ZM17.1,465.793l3.5-123.219,48.977,1.3L66.08,467.1ZM284.412,463.7a96.421,96.421,0,0,1-57.265,6.191L125.821,442.34a46.991,46.991,0,0,0-34.044,3.605l-8.695,4.512,2.327-81.926a93.3,93.3,0,0,1,92.228-4.766l6.077,3.051A81.818,81.818,0,0,0,218,375.395l59.729,1.59c16.776.469,31.024,12.039,34.427,27.961l-88.966-2.379a8.005,8.005,0,1,0-.456,16l98.181,2.617h.23A8.142,8.142,0,0,0,329.4,413.4a49.215,49.215,0,0,0-.8-10.379l66.358-30.371c.065-.027.129-.059.194-.09a25.866,25.866,0,0,1,28.535,3.871Zm0,0" transform="translate(0 15.79)" fill="url(#linear-gradient)"/>
    <path id="Path_75" data-name="Path 75" d="M228.2,84V8a8,8,0,0,0-16,0V84a8,8,0,0,0,16,0Zm0,0" transform="translate(7.124)" fill="url(#linear-gradient)"/>
    <path id="Path_76" data-name="Path 76" d="M288.2,84V48a8,8,0,0,0-16,0V84a8,8,0,0,0,16,0Zm0,0" transform="translate(9.141)" fill="url(#linear-gradient)"/>
    <path id="Path_77" data-name="Path 77" d="M168.2,84V48a8,8,0,0,0-16,0V84a8,8,0,0,0,16,0Zm0,0" transform="translate(5.106)" fill="url(#linear-gradient)"/>
  </g>
</svg>
