<svg xmlns="http://www.w3.org/2000/svg" xmlns:xlink="http://www.w3.org/1999/xlink" width="394.04" height="503.508" viewBox="0 0 394.04 503.508">
  <defs>
    <linearGradient id="linear-gradient" x1="0.09" y1="0.603" x2="0.593" y2="0.76" gradientUnits="objectBoundingBox">
      <stop offset="0" stop-color="#ffc107"/>
      <stop offset="1" stop-color="#ff9800"/>
    </linearGradient>
  </defs>
  <g id="_006-shield" data-name="006-shield" transform="translate(-52.175 -0.001)">
    <g id="Group_75" data-name="Group 75" transform="translate(52.175 0.001)">
      <g id="Group_74" data-name="Group 74">
        <path id="Path_82" data-name="Path 82" d="M414.171,36.066a8.426,8.426,0,0,0-1.677.17,220.51,220.51,0,0,1-159.6-28.2l-11.1-6.8a8.442,8.442,0,0,0-8.806,0l-11.1,6.8A220.512,220.512,0,0,1,62.277,36.2a8.4,8.4,0,0,0-10.1,8.25V302.433A186.184,186.184,0,0,0,77.8,396.762a180.07,180.07,0,0,0,83.522,74.264l72.7,31.782a8.439,8.439,0,0,0,6.735,0l72.72-31.782c4.091-1.788,8.116-3.726,12.039-5.8a8.4,8.4,0,1,0-7.9-14.829q-5.337,2.82-10.9,5.254l-69.328,30.3-69.3-30.28a163.4,163.4,0,0,1-75.768-67.407,169.4,169.4,0,0,1-23.3-85.87V54.48A237.442,237.442,0,0,0,230.651,22.312l6.735-4.1,6.735,4.1A237.3,237.3,0,0,0,405.759,54.48V302.4a8.419,8.419,0,0,0,16.837,0V44.451A8.4,8.4,0,0,0,414.171,36.066Z" transform="translate(-52.175 -0.001)" fill="url(#linear-gradient)"/>
      </g>
    </g>
    <g id="Group_77" data-name="Group 77" transform="translate(84.176 55.794)">
      <g id="Group_76" data-name="Group 76">
        <path id="Path_83" data-name="Path 83" d="M227.593,60.059a8,8,0,0,0-10.81-3.337c-.207.109-.41.228-.607.355a175.2,175.2,0,0,1-122.4,20.728,8,8,0,0,0-9.6,7.848v191.12A135.549,135.549,0,0,0,104.264,347.7a138.933,138.933,0,0,0,65.216,55.7,8,8,0,0,0,6.184-14.76,122.988,122.988,0,0,1-57.76-49.3,119.61,119.61,0,0,1-17.728-62.56V95.125a190.951,190.951,0,0,0,124.08-24.256A8,8,0,0,0,227.593,60.059Z" transform="translate(-84.176 -55.794)" fill="url(#linear-gradient)"/>
      </g>
    </g>
    <g id="Group_79" data-name="Group 79" transform="translate(302.752 391.611)">
      <g id="Group_78" data-name="Group 78">
        <path id="Path_84" data-name="Path 84" d="M425.041,402.343a8,8,0,0,0-10.465-.026L376.32,440.573a14.227,14.227,0,0,0-8.176,0l-70.256-70.256a8,8,0,0,0-11.312,11.312l70.248,70.256a15.8,15.8,0,0,0,15.352,20.088,16,16,0,0,0,16-16,15.708,15.708,0,0,0-.6-4.088l38.256-38.256A8,8,0,0,0,425.041,402.343Z" transform="translate(-284.331 -368.072)" fill="url(#linear-gradient)"/>
      </g>
    </g>
    <g id="Group_81" data-name="Group 81" transform="translate(150.334 155.425)">
      <g id="Group_80" data-name="Group 80">
        <path id="Path_85" data-name="Path 85" d="M353.832,178.317l-32-32a8,8,0,0,0-11.312,0l-98.344,98.344-26.344-26.344a8,8,0,0,0-11.312,0l-32,32a8,8,0,0,0,0,11.312l64,64a8,8,0,0,0,11.312,0l136-136A8,8,0,0,0,353.832,178.317ZM212.176,308.661,159.52,255.973l20.656-20.688,26.4,26.344a8,8,0,0,0,11.312,0l98.288-98.344,20.72,20.688Z" transform="translate(-140.178 -143.975)" fill="url(#linear-gradient)"/>
      </g>
    </g>
  </g>
</svg>
