<svg xmlns="http://www.w3.org/2000/svg" xmlns:xlink="http://www.w3.org/1999/xlink" width="524.13" height="360" viewBox="0 0 524.13 360">
  <defs>
    <linearGradient id="linear-gradient" x1="0.707" y1="0.726" x2="0.5" y2="0.435" gradientUnits="objectBoundingBox">
      <stop offset="0" stop-color="#ff9800"/>
      <stop offset="1" stop-color="#ffc107"/>
    </linearGradient>
  </defs>
  <path id="auto" d="M522.051,308.9a262.653,262.653,0,0,0-5.676-25.709c5.8-57.215,5.211-116.25,2.163-147.3-2.77-28.213-14.65-48.654-35.308-60.757-14.981-8.776-33.67-12.864-58.815-12.864-10.727,0-21,.733-30.059,1.38-2.048.145-4.034.287-5.952.415-5.612.373-11.921.774-18.8,1.21C328.013,67.91,265.155,71.9,210.415,79.309,174.3,84.2,134.936,104.158,105.107,132.7,74.773,161.731,56.2,197.763,51.636,235.714c-.045.265-.1.527-.128.8-.343,3.036-.59,6.094-.755,9.153-.033.6-.05,1.212-.076,1.819-.033.785-.075,1.571-.1,2.356q-.057,2.131-.059,4.267c0,.293.024,11.834.847,27.513A74.684,74.684,0,0,0,0,352.471,13.18,13.18,0,0,0,13.179,365.65h8.327c-.095,1.29-.159,2.588-.159,3.9a52.717,52.717,0,0,0,105.433,0c0-1.313-.065-2.611-.159-3.9h9.318c.206,0,.407-.022.61-.03H379.463c-.1,1.3-.162,2.608-.162,3.931a52.717,52.717,0,0,0,105.433,0c0-1.325-.066-2.632-.162-3.931h14.551a22.487,22.487,0,0,0,18.446-9.177C524.45,347.22,525.873,332.114,522.051,308.9ZM74.063,395.91A26.166,26.166,0,0,1,48.026,365.65H100.1A26.166,26.166,0,0,1,74.063,395.91Zm78.164-170.972-72.074-.107c9.581-42.192,39.033-75.17,72.074-95.851ZM265.1,339.26H237.225V263.7H265.1V339.26Zm0-101.92H205.6a13.179,13.179,0,1,0,0,26.358h5.272V339.26H178.586V133.4l86.516-9.233V237.34Zm124.178.647c0,15.169-38.1-1.3-38.1,66.568v34.706h-59.72v-217.5l97.82-7.111C389.28,158.886,389.28,227.808,389.28,237.987ZM432.018,395.91a26.163,26.163,0,0,1-26.032-30.29h52.063a26.163,26.163,0,0,1-26.032,30.29Z" transform="translate(0 -62.268)" fill="url(#linear-gradient)"/>
</svg>
