<svg xmlns="http://www.w3.org/2000/svg" xmlns:xlink="http://www.w3.org/1999/xlink" width="586.641" height="360" viewBox="0 0 586.641 360">
  <defs>
    <linearGradient id="linear-gradient" x1="0.707" y1="0.726" x2="0.5" y2="0.435" gradientUnits="objectBoundingBox">
      <stop offset="0" stop-color="#ff9800"/>
      <stop offset="1" stop-color="#ffc107"/>
    </linearGradient>
  </defs>
  <path id="bikelock" d="M501.982,276.493a84.616,84.616,0,0,0-69.6,36.538l-22.036-9.439V289.78l69.027-28.641L497.1,220.282h8.145l40.833,48.5a7.968,7.968,0,1,0,12.191-10.264l-32.189-38.233h5.12a7.968,7.968,0,1,0,0-15.935h-11.97l10.426-4.943a9.959,9.959,0,0,0,4.768-13.19l-6.006-12.947a9.962,9.962,0,0,0-8.945-5.769l-110.529-1h-.09a9.964,9.964,0,0,0-7.292,3.173c-.206.219-22.784,23.6-64.441,29.025a93.686,93.686,0,0,0-13.8-19.258c-16.023-17.183-37.076-26.266-60.886-26.266a104.03,104.03,0,0,0-14.875,1.1l-.081.013c-1.174.18-28.977,4.505-67.466,15.3-.42.022-1.026.044-1.769.044-4.416,0-15.135-.787-19.312-8.08a13.815,13.815,0,0,1-.862-1.824l18.41-3.343a9.462,9.462,0,1,0-3.382-18.62l-14.834,2.694c2.27-9.369,7.425-22.177,17.672-39.639A9.961,9.961,0,0,0,163.83,86.46c-1.1.416-27.313,10.493-51.091,35.345a134.868,134.868,0,0,0-36.45,74.029,36.478,36.478,0,0,1,5.134-7.568s27.191,17.749,11.842,43.444h-18c.432,5.22,1.105,10.6,2.067,16.163a9.965,9.965,0,0,0,3.075,5.638l22.242,20.437C29.509,264.138,3.2,311.6,3.2,311.6c-5.485,7.3-2.725,15.174,6.126,10.994a84.645,84.645,0,1,0,159.99,38.558,85.457,85.457,0,0,0-.639-10.228H272.126l-40.836-30.44s-48.459,4.681-83.032-32.942c3.618-.182,7.565-.3,11.76-.3,28.034,0,67.059,5.046,93.77,29.081a10.067,10.067,0,0,0,1.095.854l91.63,61.759a9.958,9.958,0,0,0,12.609-1.217L396.042,340.8l22.01,9.427a84.648,84.648,0,1,0,83.929-73.738Zm-91.63-20.527,62.386-29.579L464.3,245.824l-53.953,22.389ZM84.658,405.978a44.821,44.821,0,0,1,0-89.642c1.043,0,2.074.049,3.1.119L69.218,354.68l35.846,17.388L122.2,336.726a44.786,44.786,0,0,1-37.546,69.252Zm417.323,0a44.878,44.878,0,0,1-44.4-38.818l33.907,14.524,15.687-36.622-36.717-15.726a44.809,44.809,0,1,1,31.526,76.642Z" transform="translate(0 -85.818)" fill="url(#linear-gradient)"/>
</svg>
