<svg xmlns="http://www.w3.org/2000/svg" xmlns:xlink="http://www.w3.org/1999/xlink" width="643.629" height="360" viewBox="0 0 643.629 360">
  <defs>
    <linearGradient id="linear-gradient" x1="0.707" y1="0.726" x2="0.5" y2="0.435" gradientUnits="objectBoundingBox">
      <stop offset="0" stop-color="#ff9800"/>
      <stop offset="1" stop-color="#ffc107"/>
    </linearGradient>
  </defs>
  <g id="canvas" transform="translate(0 -102.934)">
    <path id="Path_91" data-name="Path 91" d="M105.877,251.173a105.881,105.881,0,1,0,96.15,150.013l25.154,19.4s184.846,1.32,195-4.417c0,0-22.939-62.644,6.178-89.122,3.065-2.789,6.918-5.968,11.154-9.337a105.844,105.844,0,1,0,98.248-66.531c-.96,0-1.876.121-2.833.141,7.648-4.964,12.528-8.08,12.528-8.08l-7.94-7.064s22.94-5.286,17.657-16.763c-5.3-11.476-60.882-80.294-60.882-80.294s9.845-21.18-10.518-36.18l-9.779,21.177s-24.927-17.206-34.849-13.893-24.806,4.964-29.454,12.24l-4.626,4.3s-1.309,7.616,6.284,18.865c0,0,76.439,23.49,80.072,40.694,0,0,5.3,10.929-17.536,13.562l-4.621,5.963-12.256.66-22.157-50.629s-21.191,5.624-32.1,14.222l1.655,8.6s-89-60.541-172.714,29.121c0,0-61.872,17.864-105.217-37.057,0,0-.66-17.866-105.212-14.556l7.283,7.611s-7.283.66-10.256,5.292,1.653,9.59,25.48,9.59c0,0,53.942,61.54,95.3,57.908l58.888,28.458L226.1,309.73s.047,3.837.317,9.706c-6.068,1.292-12.869,2.727-20.086,4.257A105.881,105.881,0,0,0,105.877,251.173Zm431.883,32.445a73.428,73.428,0,1,1-73.424,73.431A73.511,73.511,0,0,1,537.759,283.618ZM105.877,430.486a73.428,73.428,0,1,1,68.385-99.961c-38.934,8.281-77.579,16.519-77.579,16.519l4.986,27.462,76.242-3.367A73.5,73.5,0,0,1,105.877,430.486ZM233.044,368.7c2.164,7.349,4.986,13.19,8.7,15.7l-34.024,1.331a107.078,107.078,0,0,0,3.221-16.067Z" fill="url(#linear-gradient)"/>
  </g>
</svg>
