<svg xmlns="http://www.w3.org/2000/svg" viewBox="0 0 58.28 65.48"><defs><style>.cls-1{fill:#f1a17f;}.cls-2{fill:#f8bf9c;}.cls-3{fill:#7e3422;}.cls-4{fill:#cb3520;}.cls-5{fill:#515151;}.cls-6{fill:#fff;}.cls-7{fill:#444;}.cls-8{fill:#ccc;}.cls-9{fill:#848484;}.cls-10{fill:#fcc036;}.cls-11{fill:#f4a210;}.cls-12{fill:#e5af28;}.cls-13{fill:#dc4437;}.cls-14{fill:#fbcb43;}.cls-15{fill:#3d6799;}.cls-16{fill:#4178af;}.cls-17{fill:#d12c24;}</style></defs><title>bik-1</title><g id="Layer_2" data-name="Layer 2"><g id="Layer_1-2" data-name="Layer 1"><rect class="cls-1" x="34.77" y="13.23" width="2.93" height="4.26" transform="matrix(1, -0.04, 0.04, 1, -0.63, 1.59)"/><path class="cls-2" d="M37.64,3.69l-4.21.18A2.54,2.54,0,0,0,31,6.52l.17,4a3.47,3.47,0,0,0,4,3.62A4.41,4.41,0,0,0,39.3,9.76l-.17-3.65C39.07,4.72,39,3.63,37.64,3.69Z"/><path class="cls-2" d="M38.42,7.51s.16,2.16.88,1.9A1.76,1.76,0,0,0,40,6.71C39.36,6.2,38.42,7.51,38.42,7.51Z"/><path class="cls-3" d="M38.43,6.44a2.62,2.62,0,0,0,.18.54,1.55,1.55,0,0,0,1,.91,3.65,3.65,0,0,1,.1-1.57c.09-.39.49-1.52.49-1.52L36.57,5A3.47,3.47,0,0,0,38.43,6.44Z"/><path class="cls-4" d="M35.4,0a5.43,5.43,0,0,0-5.26,5.44,50.8,50.8,0,0,1,7.11-.3c1.18.05,1.35,1.47,2.28,2.29a4.37,4.37,0,0,0,1.62.82A14.38,14.38,0,0,0,41,4.47,5.65,5.65,0,0,0,35.4,0Z"/><path class="cls-5" d="M39.74,6.61c-.64-.85-1.17-2.19-2.24-2.24a37.65,37.65,0,0,0-7.32.36,1.87,1.87,0,0,0-1.11,1.19,8.76,8.76,0,0,0,4.11.18c2.15-.28,3.7-1,4.55-.63s.66,1,1.49,1.75a3.07,3.07,0,0,0,1.93,1l0-.51A3.43,3.43,0,0,1,39.74,6.61Z"/><path class="cls-5" d="M39.21,9.62c-.27,0-.29-.9-.26-1.58S39,6.11,39,6.11l-.76-.79s0,3.22,0,3.57c.08.71.1,1.33.73,1.6.23.1.76,0,1.13-.59A6.09,6.09,0,0,0,40.58,8l-.46-.47S40,9.74,39.21,9.62Z"/><path class="cls-5" d="M38.72,10.07a4.11,4.11,0,0,1-1.94,3.19,7.41,7.41,0,0,1-3.73.44s1.23,1.3,3.8.19A4.68,4.68,0,0,0,39.5,10.2,1.15,1.15,0,0,0,38.72,10.07Z"/><path class="cls-3" d="M35.87,6.07a1.4,1.4,0,0,0-1.15.84c-.08.16.07.25.17.12a1.47,1.47,0,0,1,1.67-.52,2.79,2.79,0,0,1,.69.44c.07.06.15-.07.09-.16A1.85,1.85,0,0,0,35.87,6.07Z"/><path class="cls-3" d="M32.69,6.35a1.23,1.23,0,0,0-1.12.44c-.16.2-.06.35.12.2a1.25,1.25,0,0,1,.95-.33,1.54,1.54,0,0,1,.83.4s.06,0,.06,0C33.5,6.65,33,6.37,32.69,6.35Z"/><path class="cls-1" d="M33.47,10.15a.23.23,0,0,1-.08-.32c.08-.21.23-.38.31-.59s0-.2-.11-.11a5.39,5.39,0,0,0-.38.54.56.56,0,0,0-.16.44,1,1,0,0,0,.65.6c.22.09.34-.07.17-.25A4.85,4.85,0,0,0,33.47,10.15Z"/><path class="cls-3" d="M35.35,12c-.2.13.07.15.32.33a1.88,1.88,0,0,0,.43-.73h-.51A.63.63,0,0,1,35.35,12Z"/><path class="cls-6" d="M35.35,12a.63.63,0,0,0,.24-.4H33.05a.49.49,0,0,0,.17.33c.09.07,0,.09-.06.18a.47.47,0,0,0-.1.1,1.6,1.6,0,0,0,1.2.66,1.92,1.92,0,0,0,1.41-.54C35.42,12.12,35.15,12.1,35.35,12Z"/><path class="cls-3" d="M33.05,11.57h-.36a3.19,3.19,0,0,0,.37.61.47.47,0,0,1,.1-.1c.09-.09.15-.11.06-.18A.49.49,0,0,1,33.05,11.57Z"/><path class="cls-1" d="M29.07,20.7S27,22.76,25.71,23a35.83,35.83,0,0,1-5.54-.16l1.07,1.63s4.8,1,5.57.78A7.84,7.84,0,0,0,31,22.8C31.92,21.61,29.07,20.7,29.07,20.7Z"/><rect class="cls-7" x="37.08" y="52.86" width="7.02" height="6.15"/><circle class="cls-5" cx="7.93" cy="57.56" r="7.93" transform="translate(-38.38 22.46) rotate(-45)"/><path class="cls-7" d="M7.93,51.7a5.86,5.86,0,1,0,5.85,5.86A5.86,5.86,0,0,0,7.93,51.7Z"/><path class="cls-8" d="M7.93,52.43a5.13,5.13,0,1,0,5.12,5.13A5.13,5.13,0,0,0,7.93,52.43Z"/><path class="cls-5" d="M7.93,53.51A4.05,4.05,0,1,0,12,57.56,4.05,4.05,0,0,0,7.93,53.51Z"/><path class="cls-8" d="M7.93,55.8a1.76,1.76,0,1,0,1.75,1.76A1.76,1.76,0,0,0,7.93,55.8Z"/><path class="cls-5" d="M7.93,56a.39.39,0,0,0-.39.39.38.38,0,0,0,.39.39.39.39,0,0,0,.39-.39A.4.4,0,0,0,7.93,56Z"/><path class="cls-5" d="M7.93,58.23a.39.39,0,0,0-.39.39.38.38,0,0,0,.39.39.39.39,0,0,0,.39-.39A.4.4,0,0,0,7.93,58.23Z"/><path class="cls-5" d="M9,57.17a.38.38,0,0,0-.39.39A.39.39,0,0,0,9,58a.4.4,0,0,0,.39-.39A.39.39,0,0,0,9,57.17Z"/><path class="cls-5" d="M6.83,57.17a.38.38,0,0,0-.39.39.39.39,0,0,0,.39.39.4.4,0,0,0,.39-.39A.39.39,0,0,0,6.83,57.17Z"/><path class="cls-5" d="M7.93,57.17a.38.38,0,0,0-.39.39.39.39,0,0,0,.39.39.4.4,0,0,0,.39-.39A.39.39,0,0,0,7.93,57.17Z"/><circle class="cls-5" cx="49.95" cy="57.56" r="7.93"/><path class="cls-7" d="M50,51.7a5.86,5.86,0,1,0,5.85,5.86A5.85,5.85,0,0,0,50,51.7Z"/><path class="cls-8" d="M50,52.43a5.13,5.13,0,1,0,5.12,5.13A5.13,5.13,0,0,0,50,52.43Z"/><path class="cls-5" d="M50,53.51a4.05,4.05,0,1,0,4,4.05A4,4,0,0,0,50,53.51Z"/><path class="cls-8" d="M50,55.8a1.76,1.76,0,1,0,1.75,1.76A1.75,1.75,0,0,0,50,55.8Z"/><path class="cls-5" d="M50,56a.4.4,0,0,0-.39.39.39.39,0,0,0,.39.39.38.38,0,0,0,.39-.39A.39.39,0,0,0,50,56Z"/><path class="cls-5" d="M50,58.23a.4.4,0,0,0-.39.39A.39.39,0,0,0,50,59a.38.38,0,0,0,.39-.39A.39.39,0,0,0,50,58.23Z"/><path class="cls-5" d="M51,57.17a.39.39,0,0,0-.39.39A.4.4,0,0,0,51,58a.39.39,0,0,0,.39-.39A.38.38,0,0,0,51,57.17Z"/><path class="cls-5" d="M48.85,57.17a.39.39,0,0,0-.39.39.4.4,0,0,0,.39.39.39.39,0,0,0,.39-.39A.38.38,0,0,0,48.85,57.17Z"/><path class="cls-5" d="M50,57.17a.39.39,0,0,0-.39.39A.4.4,0,0,0,50,58a.39.39,0,0,0,.39-.39A.38.38,0,0,0,50,57.17Z"/><path class="cls-9" d="M40.37,52.16A2.82,2.82,0,1,0,43.18,55,2.81,2.81,0,0,0,40.37,52.16Z"/><circle class="cls-8" cx="40.37" cy="54.97" r="1.7"/><rect class="cls-5" x="37.59" y="57.95" width="4.72" height="1.72"/><path class="cls-7" d="M54,53.16c-.88-.54-1.7-.25-2.8.16-2.94,1.09-5.2,2.92-7.44,3.78-.4.15-1.11.32-1.7.49v2.55a12.35,12.35,0,0,0,5.93.53c2.33-.32,8.33-2.21,8.33-4A5,5,0,0,0,54,53.16Z"/><path class="cls-8" d="M52.73,54.05c-3.27.07-6.89,3.44-7.25,3.87a1,1,0,0,0,.88,1.7A18.93,18.93,0,0,0,53.19,58c1.09-.52,2.07-1.32,1.71-2.1C54.62,55.3,53.57,54,52.73,54.05Z"/><circle class="cls-5" cx="52.6" cy="54.86" r="0.32"/><path class="cls-5" d="M54.17,56a.32.32,0,0,0-.32.32.32.32,0,0,0,.32.32.33.33,0,0,0,.32-.32A.32.32,0,0,0,54.17,56Z"/><path class="cls-5" d="M46.18,58.39a.32.32,0,0,0-.32.32.32.32,0,0,0,.64,0A.32.32,0,0,0,46.18,58.39Z"/><path class="cls-5" d="M50.43,55.52c-.69.26-1.2.59-1.15.72s.65,0,1.34-.22,1.19-.58,1.14-.72S51.11,55.26,50.43,55.52Z"/><path class="cls-5" d="M51.26,57c-1.07.41-1.91.86-1.85,1a4.46,4.46,0,0,0,2-.5c1.08-.41,1.92-.86,1.86-1S52.34,56.63,51.26,57Z"/><path class="cls-5" d="M50.71,56.38c-1.08.41-1.91.85-1.86,1s1-.08,2-.5,1.91-.85,1.86-1S51.79,56,50.71,56.38Z"/><path class="cls-10" d="M11.76,43.9c-3.23-1.11-7.42,1-10.18,3.59S1.17,50.81,3.79,51s7,.67,8.69,1.52,2.6,3.27,3.62,3.27h3S15,45,11.76,43.9Z"/><path class="cls-5" d="M22.26,23.42C20.43,22.81,20,20.25,20,20.25a28.39,28.39,0,0,0-3.5.33c-.46,1.34-1.36,3.92-1.91,5.5.66.34,1.2.55,2.06.9,1.7.67.85,1.58.85,1.58l4.81,2.05,1.83-4.27C24.66,25,24.09,24,22.26,23.42Z"/><path class="cls-10" d="M13.4,23.86a2.45,2.45,0,0,0,1.1,2.2l0,0c.55-1.58,1.45-4.16,1.91-5.5a3.18,3.18,0,0,0-.75.2A3.37,3.37,0,0,0,13.4,23.86Z"/><path class="cls-11" d="M38.54,57.34c-2,0-4.53.26-6.16.24-2.92,0-7.31-.55-10.12-4.49s-3-10.78-2.44-14a68.16,68.16,0,0,0,.62-9.31l-4.2-1.78s-5.17,10.36-5.91,12.44-.48,2.8.67,3.77,4.16,6.5,5.24,8.83,2.53,6.22,6.67,7.08c3.49.72,12.54.71,15.3.69a1.86,1.86,0,0,0,1.32-.57,18.81,18.81,0,0,0,1.22-1.48C41.64,57.48,40.15,57.33,38.54,57.34Z"/><path class="cls-10" d="M35,50.39a3.08,3.08,0,0,1-.86,1.71l1,1.17a2.63,2.63,0,0,1-2.22,1H25.46a3.86,3.86,0,0,1-3.2-1.23c-.37-.44,0-1,.32-1.41A4.41,4.41,0,0,1,21.69,49c-.05-2.5-.16-4.2,0-6.34s.61-12,.61-12l-6-2.56s3.1,3.05,2.66,4.27-3.95,8-3.68,10.29,3.39,8.24,4.48,10.48S23.48,58,25.8,58H38.13l1.69-2.65,6-12.18-10.67,2.3A43.42,43.42,0,0,1,35,50.39Z"/><path class="cls-5" d="M32.14,53.2a43.2,43.2,0,0,1-6.83-.11,4.22,4.22,0,0,1-2.73-1.41c-.33.39-.69,1-.32,1.41a4,4,0,0,0,3.2,1.54H33a2.57,2.57,0,0,0,2.22-1.36l-1-1.17A3.31,3.31,0,0,1,32.14,53.2Z"/><polygon class="cls-10" points="35.84 60.87 36.24 60.87 38.54 57.34 37.99 57.41 35.84 60.87"/><path class="cls-10" d="M55,45.61c-1.51-1.53-3.84-2.15-6.78-1.71s-7,1.65-8,3.6.43,5.82,1.19,7.5c3.19-.61,10.61-2,15.41-2.75a1.85,1.85,0,0,0,1.13-.53l0,0S56.48,47.13,55,45.61Z"/><path class="cls-11" d="M55.93,45.09c-2.66-3.35-8.06-2.53-10.47-1.94-2.84.69-7.59,2.82-7.32,6.5a15.91,15.91,0,0,0,1.68,5.65l1.55-.3c-.76-1.68-2.26-5.5-1.19-7.5s5.08-3.17,8-3.6,5.27.18,6.78,1.71,2.9,6.09,2.9,6.09l0,0a2.18,2.18,0,0,0,.23-2A12.16,12.16,0,0,0,55.93,45.09Z"/><path class="cls-5" d="M48.54,40.93c-4,.12-9.57.22-13-1.72-2.43,1.52-2.62,3.36-2.51,4s.49,2.58,2.21,2.68a17.78,17.78,0,0,0,7-1.45,18.84,18.84,0,0,1,6-1.6,13.84,13.84,0,0,1,6,.85c2.11-1,2-3.77,2-3.77A41.93,41.93,0,0,1,48.54,40.93Z"/><path class="cls-9" d="M48,37.86c-3.32.4-5.31,1.7-11.42.8a9,9,0,0,0-1,.55c3.47,1.94,9,1.84,13,1.72a41.93,41.93,0,0,0,7.75-1,13.14,13.14,0,0,0-3-1.27A14.89,14.89,0,0,0,48,37.86Z"/><path class="cls-6" d="M57.31,41.62H49.25a.6.6,0,1,0,0,1.19h8.06a.6.6,0,1,0,0-1.19Z"/><path class="cls-6" d="M25.5,57.69c-2.07-.26-4.31-2.15-5.58-4.71l-.13-.26c-1.36-2.74-3.22-6.5-3.71-8a6.89,6.89,0,0,1,.1-5.43c1-2.52,1.32-3.26,1.95-4.65.12-.27.27-.53.41-.78.55-1,1.12-2,0-3.41-1.27-1.64-2.14-2.57-2.14-2.58l-.36.34s.86.92,2.11,2.54c.91,1.18.51,1.89-.05,2.87-.15.26-.3.53-.44.82-.63,1.39-.94,2.14-1.95,4.67a7.26,7.26,0,0,0-.11,5.76c.5,1.53,2.37,5.3,3.74,8.06l.12.25c1.34,2.7,3.74,4.71,6,5,.37,0,1,.06,1.83.06C31,58.24,37.75,58,38.13,58l.41-.61C38.43,57.35,27.51,58,25.5,57.69Z"/><rect class="cls-5" x="42.6" y="51.49" width="11.98" height="1.22" transform="translate(-8.87 9.98) rotate(-10.75)"/><rect class="cls-6" x="55.19" y="48.35" width="1.22" height="2.56" rx="0.45" ry="0.45" transform="translate(-12.35 19.09) rotate(-17.51)"/><path class="cls-5" d="M19.22,39.21c.12-1.13.18-1.68-.58-1.88-.6-.16-.85.35-1.17,1.25a14,14,0,0,0-.73,4.23,7.7,7.7,0,0,0,1,3.65c.49,1,.81,1.14,1.51.81s.77-.57.55-1.41A34.82,34.82,0,0,1,19.22,39.21Z"/><rect class="cls-10" x="16.35" y="39.56" width="3.53" height="0.44"/><rect class="cls-10" x="16.35" y="42.32" width="3.53" height="0.44"/><rect class="cls-10" x="16.54" y="45.12" width="3.53" height="0.44"/><rect class="cls-6" x="21.49" y="24.43" width="3.21" height="1.63" rx="0.81" ry="0.81"/><path class="cls-9" d="M24.7,23.86a1.39,1.39,0,0,0-1.38,1.39h0a1.38,1.38,0,0,0,2.76,0h0A1.39,1.39,0,0,0,24.7,23.86Z"/><path class="cls-11" d="M20.93,17.07c0,2.05,2.39,2.85,2.39,2.85V14.21S20.93,15,20.93,17.07Z"/><path class="cls-11" d="M21.24,16.65a.31.31,0,0,0-.31.31v6.59a.31.31,0,0,0,.62,0V17A.31.31,0,0,0,21.24,16.65Z"/><path class="cls-12" d="M24.49,49.55c-.07.24-.16.52-.26.84a2.49,2.49,0,0,1-1.49,1.47,10.18,10.18,0,0,0,1.68,1.23h2.43l-.08-3.54Z"/><path class="cls-13" d="M22.14,51a3.55,3.55,0,0,0,.6.87,2.49,2.49,0,0,0,1.49-1.47c.1-.32.19-.6.26-.84H23.13A2.71,2.71,0,0,1,22.14,51Z"/><path class="cls-13" d="M24.42,53.09a4.23,4.23,0,0,0,1.14.49h1.3v-.49Z"/><path class="cls-14" d="M30.67,49.79c-.07.24-.16.52-.26.84A2.32,2.32,0,0,1,28,52.18a1.46,1.46,0,0,1-1.1-.33,3.62,3.62,0,0,0-1.22.69,1.41,1.41,0,0,0-.18.8H33L33,49.79Z"/><path class="cls-13" d="M28.26,51.33c-.2.11-.8.28-1.4.52a1.46,1.46,0,0,0,1.1.33,2.32,2.32,0,0,0,2.45-1.55c.1-.32.19-.6.26-.84H29.32A2.12,2.12,0,0,1,28.26,51.33Z"/><path class="cls-13" d="M25.46,53.34a4.4,4.4,0,0,0,0,.48H33v-.48Z"/><path class="cls-15" d="M27.89,35.43a4.18,4.18,0,0,0-2.43,3.23c-1.05,4.42-2.38,11.05-2.38,11.05l3.73.67,3-9.63,8-6.21-2.88-2S30.53,34.44,27.89,35.43Z"/><path class="cls-16" d="M40,32.87s-7.66,1.72-8.71,3.21c-1.29,1.82-2,12-2,13.9l3.78.75L35.13,40a42.43,42.43,0,0,0,8-.79c4.5-.77,2-8,2-8Z"/><path class="cls-17" d="M32.69,16.71a55.55,55.55,0,0,0-4.22,4,3.79,3.79,0,0,0,1.11,1.74,4.93,4.93,0,0,0,1.43,1l2.52-2L34,16.44A2.5,2.5,0,0,0,32.69,16.71Z"/><path class="cls-13" d="M45.18,27.31a8,8,0,0,1-.94-2.53c-.62-2.57-.46-3.73-.82-5.61C42.86,16.34,41.7,16,41.7,16l-4-.66a2,2,0,0,1-1.68,1c-1.11,0-1.22-.84-1.22-.84s-.9.54-2.12,1.17c-1,1.95-.46,4.74,0,7.79.34,2.22.64.93,1.11,3,.33,1.42-.64,2.78,0,3.64s0,1.08.16,1.61c.59,2.18,9.5,3,11.94-.76a3.49,3.49,0,0,0-.7-2.4C44.65,28.77,45.69,27.91,45.18,27.31Z"/><path class="cls-2" d="M34.43,26.14c-1.85.37-4.14-.51-5.56-.79a21.29,21.29,0,0,1-3-.88,1.36,1.36,0,0,1,.23,1,1.4,1.4,0,0,1-.36.73s1.58.74,3.1,1.33S32.59,29.18,35,29s4.9-3,6.09-5.37a8.29,8.29,0,0,0-3-1.32C37.61,23.51,35.72,25.88,34.43,26.14Z"/><path class="cls-17" d="M39.59,17.82c-.8,2-1.82,3.59-2.18,4.79a43.1,43.1,0,0,0,4.05,2.28,12.25,12.25,0,0,0,1.62-3.95C43.76,15.2,40.75,14.92,39.59,17.82Z"/><path class="cls-2" d="M23,23.73c-.61.21-1.34,1-1.19,1.28s1-.55,1-.55-.56.71-.15.8c.19,0,.46-.15.69-.35a1.44,1.44,0,0,1,.77-.88,1.66,1.66,0,0,1,.47-.17A2.92,2.92,0,0,0,23,23.73Z"/><circle class="cls-3" cx="35.37" cy="8.19" r="0.3"/><circle class="cls-3" cx="32.25" cy="8.19" r="0.3"/><rect class="cls-3" x="34.89" y="7.77" width="1.65" height="0.29"/><rect class="cls-3" x="31.72" y="7.77" width="1.65" height="0.29"/></g></g></svg>