<svg xmlns="http://www.w3.org/2000/svg" viewBox="0 0 64.59 49.73"><defs><style>.cls-1{fill:#444;}.cls-2{fill:#515151;}.cls-3{fill:#848484;}.cls-4{fill:#757575;}.cls-5{fill:#aaa;}.cls-6{fill:#d12c24;}.cls-7{fill:#dc4437;}.cls-8{fill:#a12b27;}.cls-9{fill:#fff;}.cls-10{fill:#e08565;}.cls-11{fill:#659e01;}</style></defs><title>bike-2</title><g id="Layer_2" data-name="Layer 2"><g id="Layer_1-2" data-name="Layer 1"><path class="cls-1" d="M55.65,32.49A1.33,1.33,0,1,0,57,33.81,1.33,1.33,0,0,0,55.65,32.49Z"/><path class="cls-1" d="M49.26,36.83a1.32,1.32,0,1,0,1.32,1.32A1.33,1.33,0,0,0,49.26,36.83Z"/><path class="cls-1" d="M62.18,36.83a1.32,1.32,0,1,0,1.33,1.32A1.32,1.32,0,0,0,62.18,36.83Z"/><path class="cls-1" d="M51.44,45.1a1.33,1.33,0,1,0,1.32,1.33A1.33,1.33,0,0,0,51.44,45.1Z"/><path class="cls-1" d="M59.8,45.1a1.33,1.33,0,1,0,1.33,1.33A1.32,1.32,0,0,0,59.8,45.1Z"/><path class="cls-1" d="M56.78,39.44l-1.13-5.33-1.13,5.33-5.91-1.7,4.92,3.85L51.05,47,55.65,43,60.25,47l-2.48-5.36,4.91-3.85Zm-6.05-.56,3.67,1-.6,1.35Zm1.55,6.39,1.6-3.48,1.31,1.11Zm2.66-5.8.71-3.71.71,3.71H54.94ZM59,45.27,56.11,42.9l1.31-1.11Zm-1.53-4-.6-1.35,3.68-1Z"/><path class="cls-2" d="M55.67,31.87a8.93,8.93,0,1,0,8.92,8.93A8.93,8.93,0,0,0,55.67,31.87Zm0,15.45a6.52,6.52,0,1,1,6.51-6.52A6.52,6.52,0,0,1,55.67,47.32Z"/><path class="cls-1" d="M55.67,32.36a8.44,8.44,0,1,0,8.44,8.44A8.46,8.46,0,0,0,55.67,32.36Zm0,16.4a8,8,0,1,1,8-8A8,8,0,0,1,55.67,48.76Z"/><path class="cls-1" d="M8.91,32.49a1.33,1.33,0,1,0,1.32,1.32A1.32,1.32,0,0,0,8.91,32.49Z"/><path class="cls-1" d="M2.52,36.83a1.32,1.32,0,1,0,1.32,1.32A1.33,1.33,0,0,0,2.52,36.83Z"/><path class="cls-1" d="M15.44,36.83a1.32,1.32,0,1,0,1.33,1.32A1.32,1.32,0,0,0,15.44,36.83Z"/><path class="cls-1" d="M4.7,45.1A1.33,1.33,0,1,0,6,46.43,1.33,1.33,0,0,0,4.7,45.1Z"/><path class="cls-1" d="M13.06,45.1a1.33,1.33,0,1,0,1.33,1.33A1.32,1.32,0,0,0,13.06,45.1Z"/><path class="cls-1" d="M10,39.44,8.91,34.11,7.78,39.44l-5.9-1.7,4.91,3.85L4.31,47,8.91,43,13.51,47,11,41.59l4.91-3.85Zm-6-.56,3.67,1-.6,1.35Zm1.55,6.39,1.6-3.48L8.45,42.9Zm2.66-5.8.72-3.71.7,3.71H8.2Zm4.08,5.8L9.37,42.9l1.31-1.11Zm-1.52-4-.61-1.35,3.68-1Z"/><path class="cls-2" d="M8.93,31.87a8.93,8.93,0,1,0,8.92,8.93A8.93,8.93,0,0,0,8.93,31.87Zm0,15.45a6.52,6.52,0,1,1,6.51-6.52A6.52,6.52,0,0,1,8.93,47.32Z"/><path class="cls-1" d="M8.93,32.36a8.44,8.44,0,1,0,8.44,8.44A8.46,8.46,0,0,0,8.93,32.36Zm0,16.4a8,8,0,1,1,8-8A8,8,0,0,1,8.93,48.76Z"/><path class="cls-1" d="M53.28,19.45c-1.6-.62-4.13-1.41-4.13-1.41s2.59,1.8,2.23,3.06-5.14,2.49-5.14,2.49l4.89,2.22s2.9-1.55,3.74-2.76S54.88,20.08,53.28,19.45Z"/><path class="cls-3" d="M5.74,22.08l0,.17a1,1,0,0,0,.72,1.22l.12,0L7,21.38l-.08,0A1,1,0,0,0,5.74,22.08Z"/><path class="cls-3" d="M11.4,22.49l-4-1-.5,2.12,4,1a1,1,0,0,0,1.22-.72l0-.18A1,1,0,0,0,11.4,22.49Z"/><polygon class="cls-2" points="6.54 23.5 6.89 23.59 7.39 21.47 7.04 21.38 6.54 23.5"/><path class="cls-2" d="M45,23.05s.6,2.57,2.24,3.27a49.37,49.37,0,0,0,7.19,1.52l.81-1.52a57.92,57.92,0,0,0-5.58-2.15A41.64,41.64,0,0,0,45,23.05Z"/><path class="cls-1" d="M30.66,28.73c-1.86,0-5.9,2.22-5.9,2.22l1.59,3.92s1.12,1.15,5.4-1.06S32.52,28.74,30.66,28.73Z"/><path class="cls-2" d="M30.43,35a2.36,2.36,0,1,0,2.35,2.35A2.35,2.35,0,0,0,30.43,35Z"/><path class="cls-4" d="M30.43,35.83A1.55,1.55,0,1,0,32,37.37,1.54,1.54,0,0,0,30.43,35.83Z"/><path class="cls-2" d="M4.87,24.46s-1.51,3.94-2,5.11.4,1.48,1,0A23.47,23.47,0,0,1,6,25.81h7l-2.23-2.89Z"/><path class="cls-5" d="M48,12.2c-2-.3-4.65,1.85-4.65,1.85l12.78,5.52S49.27,12.39,48,12.2Z"/><path class="cls-6" d="M53.68,30.87a9.13,9.13,0,0,0-4.65,2,15.07,15.07,0,0,0-2.29,1.84s.49.26,1.11.53a17.41,17.41,0,0,1,3.76-2.72,9.42,9.42,0,0,1,5-.32l.52.11,1.31-.87A8,8,0,0,0,53.68,30.87Z"/><path class="cls-7" d="M51.61,32.49a17.41,17.41,0,0,0-3.76,2.72,7.68,7.68,0,0,0,1.66.55c2.1.34,4.63-1.48,4.63-1.48l3-2-.52-.11A9.42,9.42,0,0,0,51.61,32.49Z"/><path class="cls-7" d="M54.76,18.14c-2.51-1.69-11.38-4.09-11.38-4.09l.2,2a99.38,99.38,0,0,1,9.26,4.13c.88.5,1.27,1.13,1.2,1.74,0,0,2.54,1.49,3.13,2.73.33.71.7,1.47,1,2,1-.25,2.09-.8,1.49-2C58.58,22.4,56.44,19.27,54.76,18.14Z"/><path class="cls-6" d="M54,21.89a1.76,1.76,0,0,1-.76,1.16,15.53,15.53,0,0,1-2.76,1.41l6,2.36a7.81,7.81,0,0,0,1.59-.19c-.27-.54-.64-1.3-1-2C56.58,23.38,54,21.89,54,21.89Z"/><path class="cls-3" d="M47.27,28.69A.93.93,0,0,0,46,28.51a.94.94,0,0,0-.19,1.32l8.9,11.76a.95.95,0,0,0,1.51-1.15Z"/><path class="cls-5" d="M49.45,32.84s2.17,3.27,3.16,4.45c1.11,1.34,1.77.33,1.87-.46.13-1,.21-1.77.33-3L50.1,31.41Z"/><path class="cls-2" d="M39.13,22.29c-3.93-.69-10.45,5.33-10.45,5.33l-4.14,4,4.14,2.93A19.48,19.48,0,0,1,36,31.61C40,31,50.1,28,50.1,28L44.94,22.3S43.05,23,39.13,22.29Z"/><polygon class="cls-1" points="30.66 28.73 26.79 33.2 43.42 25.39 37.32 22.53 30.66 28.73"/><path class="cls-6" d="M23.25,43.36,20,41.19l-1.23,1.09L23,44.77h20.7a14.13,14.13,0,0,0-.16-1.42Z"/><path class="cls-8" d="M54.87,28l-.46-.2-1,.89c-1.93,1.62-6.18,3.68-7.93,3.86s-12.66.61-12.66.61a12.88,12.88,0,0,1-.3,3.63c-.43,1.12-3.87,4-3.87,4L27.75,40a3.44,3.44,0,0,1-.62.33C25,41.16,21.34,40,21.34,40L20,41.19l3.26,2.17H43.49A10.75,10.75,0,0,1,43.38,40a6.08,6.08,0,0,1,2.85-4.43c.66-.46,3.5-2.55,6.05-4.49C54.32,29.52,56,28.52,54.87,28Z"/><path class="cls-6" d="M39.56,29.44A43,43,0,0,1,31.21,31s0,1.89.18,4.46c.07,1-2.05,3.59-3.64,4.61l.85.78s3.44-2.85,3.87-4a12.88,12.88,0,0,0,.3-3.63s10.9-.43,12.66-.61,6-2.24,7.93-3.86l1-.89c-2.19-.91-6.77-2.56-6.77-2.56A21.67,21.67,0,0,1,39.56,29.44Z"/><path class="cls-3" d="M27.55,37.62a31.21,31.21,0,0,1,.24-3.71l-4.67-3.32s-.32,4.35-.45,6.43,3,3.21,3.68,4.11,2.92,0,2.37-1.39C28.49,39.18,27.55,38.81,27.55,37.62Z"/><path class="cls-3" d="M21.33,31,9.43,40a.41.41,0,0,0-.08.59.42.42,0,0,0,.59.09l11.9-8.92a.43.43,0,0,0-.51-.68Z"/><rect class="cls-3" x="7.93" y="39.99" width="4.04" height="1.51"/><path class="cls-3" d="M16.78,34.87c-.25.19-.48.39-.74.57a.41.41,0,0,0,.07.11l3,3.14c-1,1.19-1.84,1.79-2.61,1.79-1.05,0-6.86-.21-6.92-.22h0a.49.49,0,0,0,0,1c.24,0,5.89.21,7,.21s2.35-.81,3.63-2.48l.25-.33-3.53-3.74Z"/><rect class="cls-3" x="18.99" y="30.92" width="3.83" height="1.9" rx="0.56" ry="0.56" transform="translate(-14.44 17.6) rotate(-34.76)"/><polygon class="cls-5" points="19.01 28.73 22.84 34.11 26.62 30.22 20.34 28.04 19.01 28.73"/><path class="cls-5" d="M9.37,40.25a.46.46,0,1,0,.46.46A.47.47,0,0,0,9.37,40.25Z"/><path class="cls-5" d="M24.32,38.15a9.13,9.13,0,0,0-3.1-2.32c-.72-.26-1.72-.68-2.31-.86s-1.26-.25-.92.59c.49,1.23,1.24,3.08,1.68,3.91.15.29.49.71,1.65,1,1.7.37,4.39.92,5.49,1S25.06,38.87,24.32,38.15Z"/><circle class="cls-2" cx="26.18" cy="40.8" r="0.34"/><path class="cls-2" d="M22.94,37.27a.35.35,0,0,0-.34.35.34.34,0,0,0,.34.34.35.35,0,0,0,.35-.34A.35.35,0,0,0,22.94,37.27Z"/><path class="cls-7" d="M33.3,20.54c-4.52,1.73-6.17,3.28-6.17,3.28L28.72,26S33.37,22.46,36,22c2.18-.4,6.28.58,8.36,1.47l.56-1.15A12.44,12.44,0,0,0,33.3,20.54Z"/><path class="cls-6" d="M36,22c-2.65.48-7.3,4.05-7.3,4.05l1.94,2.7s2.92-2.78,4.76-3,8-.33,8-.33l1-1.94C42.3,22.56,38.2,21.58,36,22Z"/><path class="cls-1" d="M44.94,22.3c-1.27-1-3.06-1-3,.34s2.75,4.67,2.75,4.67a8.2,8.2,0,0,0,2.92-2A22,22,0,0,0,44.94,22.3Z"/><path class="cls-7" d="M17.51,25.38c-1.71.21-4.34-5.21-5.42-5.21s-4.5-.2-4.5-.2a14.42,14.42,0,0,0-1.94,0c-.19,0-.69.26.19.72a20.64,20.64,0,0,1,5.26,3.76c1.74,2,3.36,3.66,4.34,3.94a12.93,12.93,0,0,0,4.27.34c1,0,3.41,1.86,3.41,1.86l4-4.31S19.22,25.17,17.51,25.38Z"/><path class="cls-2" d="M25.89,25.28a17.51,17.51,0,0,1-7.08.3c-2.9-.47-5-3-5.9-4.29-.46-.67-.23-1.05.1-1.26-1-.72-4.14-.6-5.46-.51-.36,0-.94.52,0,.77,1.07.29,4.31.94,4.31.94S14,24.94,16.12,26s9.89.78,9.89.78l-2.89,3.86,3.67,2.61,3.87-4.47-2.81-3.9Z"/><path class="cls-3" d="M19.89,24.45c-2.45-.4-6.05-3.46-6.72-4.28A1.14,1.14,0,0,0,13,20c-.33.21-.56.59-.1,1.26.9,1.33,3,3.82,5.9,4.29a17.51,17.51,0,0,0,7.08-.3l2-.45-.72-1S22.35,24.85,19.89,24.45Z"/><rect class="cls-9" x="37.61" y="30.95" width="5.78" height="0.93"/><path class="cls-9" d="M49.26,29.12c-.81-.24-2.19-.73-3.51-1.08-.4-.11-1.14.59-1.6,1.08-.23.25.2.44.55.43.84,0,2.08,0,3.23,0C49.57,29.6,50.07,29.36,49.26,29.12Z"/><path class="cls-2" d="M53.6,36.5a.33.33,0,0,0,0,.65.33.33,0,1,0,0-.65Z"/><path class="cls-2" d="M51.05,33.16a.32.32,0,0,0-.32.33.32.32,0,0,0,.32.32.32.32,0,0,0,.33-.32A.33.33,0,0,0,51.05,33.16Z"/><path class="cls-2" d="M25.87,33.81a.48.48,0,0,0-.48.49v3.16a.47.47,0,0,0,.48.48.48.48,0,0,0,.48-.48V34.3A.49.49,0,0,0,25.87,33.81Z"/><polygon class="cls-1" points="26 26.73 23.12 30.59 24.99 31.92 29.73 27.44 28.71 26.03 26 26.73"/><path class="cls-6" d="M19.71,28.73l3.41,1.86L26,26.73A31.18,31.18,0,0,1,22.5,28C21.49,28.33,19.71,28.73,19.71,28.73Z"/><path class="cls-2" d="M43.42,22.53c-.23.16-.23.5-.06.94a15.89,15.89,0,0,0,2.35,3.35,6.65,6.65,0,0,0,1.62-1.17S44.5,21.75,43.42,22.53Z"/><path class="cls-5" d="M55.14,20.17c0,1.22,2,1.82,3.1,3.95.4.77,1.15.39,1.18.05a12.73,12.73,0,0,0-1.35-2.28Z"/><path class="cls-1" d="M51.38,11.42V16a2.54,2.54,0,0,0,1.9-2.3A2.54,2.54,0,0,0,51.38,11.42Z"/><polygon class="cls-1" points="52.13 16.93 53.28 17.35 53.28 13.72 52.13 13.72 52.13 16.93"/><path class="cls-5" d="M39.59,15.54a9.28,9.28,0,0,0-1.12-3.36L36,18.62,37.48,21l9.87-1.64.23-1.45-8,.35S39.58,16.85,39.59,15.54Z"/><rect class="cls-10" x="34.85" y="9.48" width="5.26" height="3.06" transform="translate(1.31 25.77) rotate(-38.57)"/><path class="cls-11" d="M39.06,2.72A4.56,4.56,0,0,1,40.38.18a5.87,5.87,0,0,0-4.49,5.51,50.68,50.68,0,0,0,5.16,5.12A3,3,0,0,0,41,7.68C40.47,6.6,38.84,4.78,39.06,2.72Z"/><path class="cls-11" d="M44.93,1.06c-1.84.78-3.44,2.6-3.5,3.84-.06,1.41,1.66,3,2,5a1.82,1.82,0,0,1-1,2.25l0,0c.42.39.84.78,1.23,1.16a4.29,4.29,0,0,0,1.56-1.33c-.37-.86-.94-2.16-1.54-3.36-1-2-1.06-4.56,0-4.45.72.07,2.49,1.89,3.58,3.1a7.53,7.53,0,0,0,.06-1.64A6.33,6.33,0,0,0,44.93,1.06Z"/><path class="cls-9" d="M41.05,10.81l1.39,1.3-1.39-1.3Z"/><path class="cls-9" d="M44.93,1.06A5.29,5.29,0,0,0,41.74,0a5.64,5.64,0,0,0-1.36.18,4.56,4.56,0,0,0-1.32,2.54c-.22,2.06,1.41,3.88,1.93,5a3,3,0,0,1,.06,3.13l1.39,1.3,0,0a1.82,1.82,0,0,0,1-2.25c-.37-2-2.09-3.57-2-5C41.49,3.66,43.09,1.84,44.93,1.06Z"/><path class="cls-1" d="M43.69,4.13c-1.06-.11-1,2.41,0,4.45.6,1.2,1.17,2.5,1.54,3.36a9.76,9.76,0,0,0,2-4.71C46.18,6,44.41,4.2,43.69,4.13Z"/><polygon class="cls-1" points="35.71 6.24 43.64 13.39 44.29 12.88 35.91 5.26 35.71 6.24"/><path class="cls-1" d="M22.05,34.92l-1.59-2s-2.57,1.29-3.67,2c-.27,1.59,2.21,6.54,5.44,6.79.91-1.4-1-4.3-1-5.53A1.35,1.35,0,0,1,22.05,34.92Z"/><path class="cls-1" d="M48.5,20a.65.65,0,0,0,0,1.3h3.2V20H48.5Z"/><path class="cls-10" d="M48.61,18.62a10.73,10.73,0,0,0-3.74,0s-.48,2,.23,2.38,3.71-.78,3.71-.78.23,1.66.64,1.67.32-1.29.32-1.29.4,1.56.75,1.29.42-.64.21-1.29A3.22,3.22,0,0,0,48.61,18.62Z"/><path class="cls-1" d="M47.85,19.57a1,1,0,1,0,1,1A1,1,0,0,0,47.85,19.57Z"/><path class="cls-11" d="M34.17,8.61a7.4,7.4,0,0,0-2.53,2.81c-1,1.84-.57,6.1-.11,8.42a26.29,26.29,0,0,0,5.86-3.2,5.4,5.4,0,0,0,1.13-5.81C38,9.67,36.84,8.69,34.17,8.61Z"/><path class="cls-9" d="M31.69,8.85A10.91,10.91,0,0,0,30,11.65c-1,2.49-.17,6.71.47,8.57a.36.36,0,0,0,0,.09c.34-.15.7-.3,1.06-.47-.46-2.32-.86-6.58.11-8.42a7.4,7.4,0,0,1,2.53-2.81h-.38A8.71,8.71,0,0,0,31.69,8.85Z"/><path class="cls-11" d="M31.69,8.85a24.44,24.44,0,0,0-5.51,2.32c-1.69.89-7.41,3.33-9.41,7.26-1.18,2.31.29,5.17,2.46,6.39s7.9,3.5,7.9,3.5l-8,4.84,1.17,1.33c1.63-.7,7.29-3.12,8.71-3.9a3.12,3.12,0,0,0,2-3,2.1,2.1,0,0,1,.64-1.35,33.59,33.59,0,0,0-4.47-4.59s1.44-.56,3.26-1.34a.36.36,0,0,1,0-.09c-.64-1.86-1.48-6.08-.47-8.57A10.91,10.91,0,0,1,31.69,8.85Z"/><path class="cls-9" d="M31,27.59a3.12,3.12,0,0,1-2,3c-1.42.78-7.08,3.2-8.71,3.9L21.71,36S32.37,32,32.78,28.8a4.17,4.17,0,0,0-1.1-2.56A2.1,2.1,0,0,0,31,27.59Z"/><rect class="cls-11" x="37.02" y="8.63" width="1.7" height="4.24" transform="translate(1.26 25.23) rotate(-37.43)"/><path class="cls-9" d="M37.87,19.32s.57-3.23.67-4.47c.2-2.32-1.06-5.5-3.44-4.41s-2,6.85-1.78,8.88C33.53,21,34,22.64,36,23s10-1.76,10-1.76l-.74-2.78Z"/><path class="cls-9" d="M22,16.64a9.93,9.93,0,0,1-.7-2.79l-.85.59A9.06,9.06,0,0,0,22,18c.83,1.28,5.2,3.61,5.2,3.61l.64-.25S23.12,18.94,22,16.64Z"/><rect class="cls-9" x="25.34" y="17.91" width="3.57" height="0.71"/></g></g></svg>