<svg xmlns="http://www.w3.org/2000/svg" viewBox="0 0 226.61 76.86"><defs><style>.cls-1{fill:#fbcb43;}.cls-2{fill:#ccc;}.cls-3{fill:#b7b7b7;}.cls-4{fill:#6d6d6d;}.cls-5{fill:#444;}.cls-6{fill:#515151;}.cls-7{fill:#708bb7;}.cls-8{fill:#98b6e2;}.cls-9{fill:#898989;}.cls-10{fill:#e88416;}.cls-11{fill:#dc4437;}</style></defs><title>bus-2</title><g id="Layer_2" data-name="Layer 2"><g id="Layer_1-2" data-name="Layer 1"><rect class="cls-1" x="113.09" width="69.09" height="14.92" rx="3.49" ry="3.49"/><path class="cls-1" d="M195,5H4.61A4.63,4.63,0,0,0,0,9.58V17H210s3.15,12.47,3.53,21.12c.07,1.53.17,4.55.28,7.72.07,2.3.66,6.92,4.8,6.93-.56-12-2.32-27.61-2.32-27.61C214.71,13.1,206.08,5,195,5Z"/><path class="cls-2" d="M218.63,52.72c.07,1.35.11,2.65.14,3.89h0s0-1.41-.15-3.89Z"/><path class="cls-2" d="M213.83,45.79c-.11-3.17-.21-6.19-.28-7.72C213.17,29.42,210,17,210,17H0V56.61H218.77c0-1.24-.07-2.54-.14-3.89C214.49,52.71,213.9,48.09,213.83,45.79Z"/><path class="cls-3" d="M210,56.61H0v6.8c15.35,2.8,28.8,4.48,28.8,4.48H210.66c2.47,0,7.54-.06,8-4.48a58.91,58.91,0,0,0,.13-6.8Z"/><path class="cls-4" d="M47,50.38a14,14,0,0,0-14,14,13.76,13.76,0,0,0,.44,3.42h27.2A14.24,14.24,0,0,0,61,64.41,14,14,0,0,0,47,50.38Z"/><path class="cls-4" d="M156.43,50.38a14,14,0,0,0-14,14,14.24,14.24,0,0,0,.43,3.42H170a14.24,14.24,0,0,0,.43-3.42A14,14,0,0,0,156.43,50.38Z"/><path class="cls-5" d="M196.16,9.24H.34L0,9.26V17H210C207.94,12.47,202.51,9.24,196.16,9.24Z"/><circle class="cls-6" cx="156.43" cy="64.67" r="12.19" transform="translate(37.22 184.84) rotate(-67.69)"/><circle class="cls-5" cx="156.43" cy="64.67" r="9.74" transform="translate(-8.36 25.97) rotate(-9.25)"/><circle class="cls-2" cx="156.43" cy="64.67" r="8.06"/><circle class="cls-3" cx="156.43" cy="64.67" r="5.82"/><path class="cls-6" d="M156.43,60.67a4,4,0,1,0,4,4A4,4,0,0,0,156.43,60.67Z"/><circle class="cls-6" cx="46.96" cy="64.41" r="12.19" transform="translate(-31.79 52.07) rotate(-45)"/><circle class="cls-5" cx="46.96" cy="64.41" r="9.74" transform="translate(-30.57 82.96) rotate(-67.37)"/><circle class="cls-2" cx="46.96" cy="64.41" r="8.06"/><circle class="cls-3" cx="46.96" cy="64.41" r="5.82"/><path class="cls-6" d="M47,60.41a4,4,0,1,0,4,4A4,4,0,0,0,47,60.41Z"/><path class="cls-6" d="M210,17H0V40.14H207.62c2.95,0,4.75-.32,5.37-2.07.77-2.18.53-4.77.09-8.64A43,43,0,0,0,210,17Z"/><rect class="cls-5" x="64.66" y="18.68" width="28.8" height="47.59"/><rect class="cls-5" x="174.96" y="18.63" width="28.8" height="47.59"/><polygon class="cls-7" points="1.69 28.25 1.69 38.35 14.96 38.35 14.96 18.74 14.96 18.74 1.69 28.25"/><polygon class="cls-8" points="1.69 18.74 1.69 38.29 14.96 29.22 14.96 18.74 1.69 18.74"/><polygon class="cls-7" points="17.22 28.07 17.22 38.29 30.5 38.29 30.5 18.68 30.32 18.68 17.22 28.07"/><polygon class="cls-8" points="17.22 28.07 30.5 18.68 17.22 18.68 17.22 28.07"/><polygon class="cls-8" points="34.04 28.52 39.17 24.85 34.04 24.85 34.04 28.52"/><polygon class="cls-8" points="34.04 23.1 41.6 23.1 47.78 18.68 34.04 18.68 34.04 23.1"/><polygon class="cls-9" points="65.75 38.29 78.01 29.71 78.01 19.9 78.01 19.86 65.75 19.86 65.75 38.29"/><polygon class="cls-9" points="79.86 28.58 92.02 19.86 79.86 19.86 79.86 28.58"/><polygon class="cls-7" points="94.52 28.08 94.52 38.29 107.79 38.29 107.79 18.68 107.64 18.68 94.52 28.08"/><polygon class="cls-8" points="94.52 38.21 96.59 38.21 107.79 30.23 107.79 18.68 94.52 18.68 94.52 38.21"/><polygon class="cls-8" points="111.34 28.54 116.49 24.85 111.34 24.85 111.34 28.54"/><polygon class="cls-8" points="111.34 23.1 118.92 23.1 125.09 18.68 111.34 18.68 111.34 23.1"/><polygon class="cls-7" points="144.44 38.35 157.72 38.35 157.72 18.81 144.44 28.33 144.44 38.35"/><polygon class="cls-8" points="144.44 38.35 157.72 29.39 157.72 18.81 157.72 18.74 144.44 18.74 144.44 38.35"/><polygon class="cls-7" points="159.98 28.09 159.98 38.29 173.25 38.29 173.25 18.68 173.11 18.68 159.98 28.09"/><polygon class="cls-8" points="159.98 28.09 173.11 18.68 159.98 18.68 159.98 28.09"/><polygon class="cls-7" points="34.04 28.52 34.04 34.58 47.33 24.85 39.17 24.85 34.04 28.52"/><polygon class="cls-7" points="34.39 38.29 63.57 38.29 63.57 24.85 52.75 24.85 34.39 38.29"/><polygon class="cls-7" points="60.55 19.14 55.13 23.1 63.57 23.1 63.57 18.68 60.22 18.68 60.55 19.14"/><polygon class="cls-7" points="41.6 23.1 49.72 23.1 55.76 18.68 47.78 18.68 41.6 23.1"/><polygon class="cls-8" points="34.04 34.58 34.04 38.29 34.39 38.29 52.75 24.85 47.33 24.85 34.04 34.58"/><polygon class="cls-8" points="55.76 18.68 49.72 23.1 55.13 23.1 61.19 18.68 60.22 18.68 55.76 18.68"/><polygon class="cls-7" points="111.34 28.54 111.34 35.6 126.03 24.85 116.49 24.85 111.34 28.54"/><polygon class="cls-7" points="113.09 38.29 140.87 38.29 140.87 24.85 131.45 24.85 113.09 38.29"/><polygon class="cls-7" points="118.92 23.1 128.41 23.1 134.46 18.68 125.09 18.68 118.92 23.1"/><polygon class="cls-7" points="139.25 19.14 133.83 23.1 140.87 23.1 140.87 18.68 138.92 18.68 139.25 19.14"/><polygon class="cls-8" points="111.34 35.6 111.34 38.29 113.09 38.29 131.45 24.85 126.03 24.85 111.34 35.6"/><polygon class="cls-8" points="134.46 18.68 128.41 23.1 133.83 23.1 139.92 18.68 138.92 18.68 134.46 18.68"/><polygon class="cls-4" points="65.75 41.47 78.01 32.49 78.01 29.43 65.75 38.21 65.75 41.47"/><polygon class="cls-4" points="65.75 65.03 78.01 65.03 78.01 36.46 65.75 45.43 65.75 65.03"/><polygon class="cls-9" points="65.75 45.43 78.01 36.46 78.01 32.49 65.75 41.47 65.75 45.43"/><polygon class="cls-4" points="79.86 28.58 79.86 51.45 92.12 42.47 92.12 19.86 92.02 19.86 79.86 28.58"/><polygon class="cls-4" points="79.86 65.03 92.12 65.03 92.12 38.21 79.86 47.18 79.86 65.03"/><polygon class="cls-9" points="79.86 35.31 92.12 26.34 92.12 22.37 79.86 31.34 79.86 35.31"/><polygon class="cls-4" points="176.05 64.98 188.31 64.98 188.31 38.07 176.05 47.04 176.05 64.98"/><polygon class="cls-9" points="176.05 47.04 188.31 38.07 188.31 34.1 176.05 43.08 176.05 47.04"/><polygon class="cls-4" points="190.16 51.53 202.42 42.56 202.42 19.82 190.16 28.61 190.16 51.53"/><polygon class="cls-4" points="190.16 64.98 202.42 64.98 202.42 39.83 190.16 48.8 190.16 64.98"/><polygon class="cls-9" points="190.16 28.61 202.42 19.82 202.42 19.81 190.16 19.81 190.16 28.61"/><polygon class="cls-9" points="190.16 36.7 202.42 27.72 202.42 23.76 190.16 32.73 190.16 36.7"/><polygon class="cls-4" points="176.05 43.08 188.31 34.1 188.31 19.83 176.05 28.61 176.05 43.08"/><polygon class="cls-9" points="176.05 38.97 188.31 30.23 188.31 19.83 188.31 19.81 176.05 19.81 176.05 38.97"/><rect class="cls-10" x="96.42" y="63.34" width="3.7" height="1.62" rx="0.51" ry="0.51"/><rect class="cls-10" x="136.2" y="63.34" width="3.7" height="1.62" rx="0.51" ry="0.51"/><rect class="cls-10" x="170.46" y="55.8" width="3.7" height="1.62" rx="0.51" ry="0.51"/><rect class="cls-10" x="26.74" y="63.34" width="3.7" height="1.62" rx="0.51" ry="0.51"/><rect class="cls-5" x="4.36" y="43.28" width="24.22" height="17.45"/><rect class="cls-4" x="5.35" y="44.2" width="1.64" height="15.6"/><rect class="cls-4" x="20.84" y="44.2" width="1.85" height="15.6"/><rect class="cls-4" x="18.22" y="44.2" width="1.85" height="15.6"/><rect class="cls-4" x="26.08" y="44.2" width="1.53" height="15.6"/><rect class="cls-4" x="10.36" y="44.2" width="1.85" height="15.6"/><rect class="cls-4" x="15.6" y="44.2" width="1.85" height="15.6"/><rect class="cls-4" x="7.75" y="44.2" width="1.85" height="15.6"/><rect class="cls-4" x="23.46" y="44.2" width="1.85" height="15.6"/><rect class="cls-4" x="12.98" y="44.2" width="1.85" height="15.6"/><rect class="cls-5" x="6.98" y="44.2" width="0.76" height="15.6"/><rect class="cls-5" x="9.6" y="44.2" width="0.76" height="15.6"/><rect class="cls-5" x="12.22" y="44.2" width="0.76" height="15.6"/><rect class="cls-5" x="14.84" y="44.2" width="0.76" height="15.6"/><rect class="cls-5" x="17.46" y="44.2" width="0.76" height="15.6"/><rect class="cls-5" x="20.07" y="44.2" width="0.76" height="15.6"/><rect class="cls-5" x="22.69" y="44.2" width="0.76" height="15.6"/><rect class="cls-5" x="25.31" y="44.2" width="0.76" height="15.6"/><polygon class="cls-11" points="206.2 59.1 211 63.34 218.64 63.34 218.77 56.61 206.2 56.61 206.2 59.1"/><rect class="cls-6" x="208.17" y="20.89" width="12.98" height="2.5"/><path class="cls-6" d="M224.94,20.89h-6.31V34.22a1.68,1.68,0,0,0,1.67,1.68h4.64a1.68,1.68,0,0,0,1.67-1.68V22.56A1.67,1.67,0,0,0,224.94,20.89Z"/></g></g></svg>