<svg xmlns="http://www.w3.org/2000/svg" viewBox="0 0 132.49 55.34"><defs><style>.cls-1{fill:#fff;}.cls-2{fill:#ccc;}.cls-3{fill:#b7b7b7;}.cls-4{fill:#515151;}.cls-5{fill:#6b6b6b;}.cls-6{fill:#444;}.cls-7{fill:#dc4437;}.cls-8{fill:#848484;}.cls-9{fill:#9b9b9b;}</style></defs><title>bus-1</title><g id="Layer_2" data-name="Layer 2"><g id="Layer_1-2" data-name="Layer 1"><path class="cls-1" d="M4.42,2.79,4,3.58H92.6V0H9.32A5.11,5.11,0,0,0,4.42,2.79Z"/><path class="cls-2" d="M116.65,7.67a4.9,4.9,0,0,1-5.33-1.07c-1.95-2.13-3.37-3-7.15-3H92.46V48.2h37.71V32.12c0-6.23-4.69-14.58-9.66-20.14Z"/><path class="cls-1" d="M103.7,0H92.46V3.58h11.71c3.78,0,5.2.89,7.15,3a4.9,4.9,0,0,0,5.33,1.07l-4.12-4.59C110.91,1.27,107.42,0,103.7,0Z"/><path class="cls-2" d="M0,26.57c0,3.74.06,7.28.12,10.07H92.6V3.58H4C1,9.46,0,14.58,0,26.57Z"/><path class="cls-3" d="M.12,36.64c.12,3.55.24,5.89.24,5.89C.36,46.9,4,48.2,10.74,48.2H126.16V36.64H.12Z"/><path class="cls-3" d="M116.73,28H5.7a.72.72,0,1,0,0,1.44h111a.72.72,0,0,0,0-1.44Z"/><path class="cls-4" d="M87.33,10.15H7.55c-1.52,0-1.87.76-2.08,1.94a49.22,49.22,0,0,0-.78,9.77,2,2,0,0,0,1.66,1.66h81A1.67,1.67,0,0,0,89,21.86v-10A1.66,1.66,0,0,0,87.33,10.15Z"/><rect class="cls-4" x="48.9" y="3.58" width="0.7" height="43.64"/><rect class="cls-4" x="49.26" y="3.58" width="43.64" height="0.7"/><rect class="cls-4" x="49.26" y="46.51" width="43.64" height="0.7"/><path class="cls-4" d="M116.26,11.38a4,4,0,0,0-3.06-1.23H97.57A1.56,1.56,0,0,0,96,11.7V23.05a.48.48,0,0,0,.48.47H123a2.29,2.29,0,0,0,.39,0l.32-1.54a3.28,3.28,0,0,0-.53-1.48A51.27,51.27,0,0,0,116.26,11.38Z"/><rect class="cls-4" x="92.39" y="3.58" width="0.7" height="43.64"/><rect class="cls-4" x="123.01" y="21.95" width="0.7" height="23.76"/><path class="cls-5" d="M29,33.48A11.83,11.83,0,0,0,17.18,45.31a11.59,11.59,0,0,0,.36,2.85H40.48a11.59,11.59,0,0,0,.37-2.85A11.84,11.84,0,0,0,29,33.48Z"/><circle class="cls-4" cx="29.01" cy="45.31" r="10.03"/><circle class="cls-6" cx="29.01" cy="45.31" r="8.02" transform="translate(-23.54 33.79) rotate(-45)"/><circle class="cls-2" cx="29.01" cy="45.31" r="6.63"/><path class="cls-3" d="M29,40.52a4.79,4.79,0,1,0,4.79,4.79A4.8,4.8,0,0,0,29,40.52Z"/><path class="cls-4" d="M29,42a3.29,3.29,0,1,0,3.3,3.29A3.29,3.29,0,0,0,29,42Z"/><path class="cls-5" d="M108.07,33.48A11.84,11.84,0,0,0,96.23,45.31a12.09,12.09,0,0,0,.36,2.85h23a12.09,12.09,0,0,0,.36-2.85A11.83,11.83,0,0,0,108.07,33.48Z"/><circle class="cls-4" cx="108.07" cy="45.31" r="10.03"/><circle class="cls-6" cx="108.07" cy="45.31" r="8.02" transform="translate(-7.53 26.13) rotate(-13.33)"/><path class="cls-2" d="M108.07,38.68a6.63,6.63,0,1,0,6.63,6.63A6.63,6.63,0,0,0,108.07,38.68Z"/><path class="cls-3" d="M108.07,40.52a4.79,4.79,0,1,0,4.78,4.79A4.79,4.79,0,0,0,108.07,40.52Z"/><path class="cls-4" d="M108.07,42a3.29,3.29,0,1,0,3.29,3.29A3.29,3.29,0,0,0,108.07,42Z"/><path class="cls-3" d="M130.17,36.64h-6.45V48.2h6.45A2.27,2.27,0,0,0,132.49,46V38.84A2.27,2.27,0,0,0,130.17,36.64Z"/><path class="cls-4" d="M96.81,26.2V18.76H96V26.2c0,4,1,5.82,4.37,8a41.39,41.39,0,0,0,5.33,2.91l.32-.74a38.76,38.76,0,0,1-5.21-2.84C97.37,31.31,96.81,29.55,96.81,26.2Z"/><rect class="cls-4" x="117.45" y="44.91" width="6.26" height="0.8"/><rect class="cls-7" x="123.72" y="31.27" width="6.46" height="4.42"/><path class="cls-7" d="M.64,26.8H0v9.26H.64a1.16,1.16,0,0,0,1.15-1.15V28A1.16,1.16,0,0,0,.64,26.8Z"/><path class="cls-8" d="M6.93,19.76c0,.55.12,1.28,1,1.28H33.52a1.56,1.56,0,0,0,1.56-1.56V15.73H7.31C7.2,16.81,7.08,18.12,6.93,19.76Z"/><path class="cls-8" d="M37.84,19.64a1.4,1.4,0,0,0,1.4,1.4h6.51a1.41,1.41,0,0,0,1.41-1.4V15.73H37.84Z"/><path class="cls-8" d="M51.83,19.67A1.37,1.37,0,0,0,53.2,21h8V15.73H51.83Z"/><rect class="cls-8" x="62.49" y="15.73" width="14.84" height="5.32"/><path class="cls-8" d="M78.63,21h6.62a1.37,1.37,0,0,0,1.37-1.37V15.73h-8Z"/><path class="cls-9" d="M33.52,12.36H9.27c-.86,0-1.56,0-1.76,1.55-.07.54-.13,1.13-.2,1.82H35.08V13.92A1.56,1.56,0,0,0,33.52,12.36Z"/><path class="cls-9" d="M45.75,12.36H39.24a1.41,1.41,0,0,0-1.4,1.41v2h9.32v-2A1.41,1.41,0,0,0,45.75,12.36Z"/><path class="cls-9" d="M51.83,13.73v2h9.34V12.36h-8A1.37,1.37,0,0,0,51.83,13.73Z"/><rect class="cls-9" x="62.49" y="12.36" width="14.84" height="3.37"/><path class="cls-9" d="M85.25,12.36H78.63v3.37h8v-2A1.38,1.38,0,0,0,85.25,12.36Z"/><path class="cls-4" d="M88.13,24.74H83.49a.87.87,0,0,0,0,1.73h4.64a.87.87,0,0,0,0-1.73Z"/><path class="cls-4" d="M104.54,24.74H99.91a.87.87,0,1,0,0,1.73h4.63a.87.87,0,1,0,0-1.73Z"/></g></g></svg>