<svg xmlns="http://www.w3.org/2000/svg" viewBox="0 0 130.59 42.42"><defs><style>.cls-1{fill:#fff;}.cls-2{fill:#d12c24;}.cls-3{fill:#ba1a1a;}.cls-4{fill:#dc4437;}.cls-5{fill:#ccc;}.cls-6{fill:#fbcb43;}.cls-7{fill:#444;}.cls-8{fill:#515151;}.cls-9{fill:#5b5b5b;}</style></defs><title>car-2</title><g id="Layer_2" data-name="Layer 2"><g id="Layer_1-2" data-name="Layer 1"><path class="cls-1" d="M51.82,1.24c-6.59-.07-18.1,6.84-18.1,6.84S34.9,13,41.58,16.29s51.92-.73,51.92-.73S84.88,9.13,77.8,4.38,58.4,1.3,51.82,1.24Z"/><path class="cls-2" d="M103.61,18.2C89,18.18,89.94,34.93,89.94,34.93s-40.41-1.71-43.39-5.26S40.79,17,30,17.42,17.24,26.7,15.45,26.91c-1.33.15-10.79-.39-15.45-.68,0,2.24,4,8.87,4,8.87s7.86,1.22,15.33,2A11.71,11.71,0,0,1,18.1,32a11.9,11.9,0,0,1,23.8,0,11.73,11.73,0,0,1-1.62,6c15.35.15,38.42.14,53.64,0a11.9,11.9,0,1,1,20.87-.49c6.91-.17,15.21-.3,15.21-.3s.15-.79.3-2l-12.23,0S119.87,18.23,103.61,18.2Z"/><path class="cls-3" d="M104.22,20.05A11.89,11.89,0,0,0,93.92,37.9c6.29-.07,11.25-.16,13.76-.27,1.7-.08,4.29-.16,7.11-.22a11.89,11.89,0,0,0-10.57-17.36Z"/><path class="cls-3" d="M30,20.05A11.9,11.9,0,0,0,18.1,32a11.71,11.71,0,0,0,1.19,5.15c2.16.23,4.3.42,6.2.53,2.27.13,7.71.23,14.79.29a11.73,11.73,0,0,0,1.62-6A11.9,11.9,0,0,0,30,20.05Z"/><path class="cls-4" d="M126.16,20.23c-5.34-2.56-28.88-6.67-28.88-6.67S85.05,4.73,76.86,2.68A75.21,75.21,0,0,0,54.18.08,56.83,56.83,0,0,0,34.65,4.73,146.55,146.55,0,0,1,4.36,13.56S0,22.5,0,26.23c4.66.29,14.12.83,15.45.68,1.79-.21,3.77-9.1,14.55-9.49s13.58,8.71,16.55,12.25,43.39,5.26,43.39,5.26S89,18.18,103.61,18.2c16.26,0,14.46,16.94,14.46,16.94l12.23,0a30.87,30.87,0,0,0,.07-7.8C129.82,23.63,127.73,21,126.16,20.23ZM87.28,14.42c-6,0-19-.1-29.56-.3L53.77,14c-5-.12-9.08-.28-10.77-.48-6.53-.8-8.93-5.26-8.93-5.26a77.17,77.17,0,0,1,14.58-5,29.15,29.15,0,0,1,3.55-.61c8.85-1,20,1.09,24.8,2.59,7.26,2.24,13.54,9.17,13.54,9.17Z"/><path class="cls-5" d="M77,5.26c-4.84-1.5-16-3.59-24.8-2.59a29.15,29.15,0,0,0-3.55.61,77.17,77.17,0,0,0-14.58,5s2.4,4.46,8.93,5.26c1.69.2,5.73.36,10.77.48l3.95.08-.86-9.19A91.64,91.64,0,0,1,74.09,6.32c6.15,1.26,11.33,6.15,13.19,8.1h3.26S84.26,7.5,77,5.26Zm-26.33,7.1c-1.47,0-8.37,0-11.26-1.49-1.93-1-1.18-2.57.43-3.3A51,51,0,0,1,51.11,4.78c2.14-.13,2.27.22,2.48.74a21.8,21.8,0,0,1,.69,5.6C54.28,12.55,52.5,12.39,50.67,12.36Z"/><path class="cls-6" d="M126,22.19c-1.77-1.3-5.14-1.87-8.51-2.14-2.17-.17-1.34,1.51-.47,2.73a2.21,2.21,0,0,0,2.25,1.28c2.11.07,8.45.37,8.45.37A13.14,13.14,0,0,0,126,22.19Z"/><path class="cls-2" d="M89.88,14.43l.26,7.73c0,4.34-.39,6.05-1.55,7.82-.43.65-1.57,2.36-5.47,2.09-6.38-.45-21.19-1.56-23.66-1.87-3-.38-3-1-3.08-3.41,0-.3,0-.63-.05-1-.2-3.15-.12-11.62-.12-11.71h-.74c0,.08,0,8.83.21,12,0,.36,0,.69,0,1,.11,2.45.4,3.11,3.68,3.53,2.47.32,17.3,1.42,23.68,1.87a8.07,8.07,0,0,0,.83,0c3.48,0,4.61-1.71,5-2.3,1.18-1.79,1.82-3.6,1.82-8l-.2-7.76Z"/><path class="cls-2" d="M41.6,17.06c.3.4.84,1,.84,1s24.86.89,30.83,1c4.1.07,15.81.48,21,.4a6.6,6.6,0,0,0,2.14-.55S80.87,18.38,74.54,18C67.21,17.57,46.69,17.13,41.6,17.06Z"/><path class="cls-5" d="M64.28,15.82h-4.9a.88.88,0,0,0,0,1.75h4.9a.88.88,0,0,0,0-1.75Z"/><path class="cls-2" d="M80.71,6.59a55.93,55.93,0,0,0-15.9-3.92c-3.72-.33-11.45-1-17.12.64s-13.88,4.74-14,4.77l-.26.11.19.21c.15.16,2.83,3.64,6,4.8a24.28,24.28,0,0,0,6.63.79v-.2a35.09,35.09,0,0,1-6.35-1.16C38,12,35.15,9.28,34.37,8.48c1.51-.6,8.47-3.35,13.43-4.79,5.6-1.63,13.28-.95,17-.63A56,56,0,0,1,80.48,7.11c5,2.26,9.19,7.09,9.4,7.32h.66C90.49,14.37,85.84,8.89,80.71,6.59Z"/><polygon class="cls-1" points="4.23 16.7 11.36 16.7 5.15 14.43 4.23 16.7"/><path class="cls-2" d="M15.58,17.19c-1.45,0-3,1.73-3.89,2.63S8,23.28,9.18,23.61a10.77,10.77,0,0,0,5,0c1.45-.46,3.58-4,4.23-5C19.72,16.52,17,17.14,15.58,17.19Z"/><path class="cls-2" d="M125.05,29.6c-1.43,0-2.52,2.4,0,3.16a18.11,18.11,0,0,0,5.43.59l.1-3.75S126.49,29.65,125.05,29.6Z"/><circle class="cls-1" cx="103.97" cy="32.42" r="5.82"/><path class="cls-7" d="M104,22.21a10.11,10.11,0,1,0,10.1,10.1A10.11,10.11,0,0,0,104,22.21Zm0,17.48a7.38,7.38,0,1,1,7.37-7.38A7.38,7.38,0,0,1,104,39.69Z"/><path class="cls-8" d="M104,24.94a7.38,7.38,0,1,0,7.37,7.37A7.37,7.37,0,0,0,104,24.94ZM104,38a5.71,5.71,0,1,1,5.71-5.71A5.7,5.7,0,0,1,104,38Z"/><path class="cls-5" d="M104,26.1a6.21,6.21,0,1,0,6.21,6.21A6.21,6.21,0,0,0,104,26.1Zm-5.41,6.21a5.2,5.2,0,0,1,1.83-4.05,4.52,4.52,0,0,1,.88,3.09,4.8,4.8,0,0,1-2.56,2.21A5.7,5.7,0,0,1,98.62,32.31Zm4.92,5.38a5.21,5.21,0,0,1-4.49-3.29c.87-.25,2.66-.73,3.72.12A4.77,4.77,0,0,1,103.54,37.69Zm-2.45-9.91a5.35,5.35,0,0,1,2.94-.87,5,5,0,0,1,2.83.8A4.69,4.69,0,0,1,104,29.66,4.89,4.89,0,0,1,101.09,27.78Zm3.31,9.92a4.78,4.78,0,0,1,.77-3.18c1.1-.88,3-.35,3.83-.1A5.27,5.27,0,0,1,104.4,37.7Zm4.87-4.1a4.86,4.86,0,0,1-2.65-2.25,4.52,4.52,0,0,1,.93-3.14,5.15,5.15,0,0,1,1.88,4.1A5.43,5.43,0,0,1,109.27,33.6Z"/><path class="cls-9" d="M104,31.16a1.08,1.08,0,1,0,1.07,1.08A1.08,1.08,0,0,0,104,31.16Z"/><path class="cls-5" d="M104,31.75a.49.49,0,1,0,.49.49A.49.49,0,0,0,104,31.75Z"/><circle class="cls-1" cx="30" cy="32.42" r="5.82"/><path class="cls-7" d="M30,22.21a10.11,10.11,0,1,0,10.1,10.1A10.11,10.11,0,0,0,30,22.21Zm0,17.48a7.38,7.38,0,1,1,7.37-7.38A7.38,7.38,0,0,1,30,39.69Z"/><path class="cls-8" d="M30,24.94a7.38,7.38,0,1,0,7.37,7.37A7.37,7.37,0,0,0,30,24.94ZM30,38a5.71,5.71,0,1,1,5.71-5.71A5.7,5.7,0,0,1,30,38Z"/><path class="cls-5" d="M30,26.1a6.21,6.21,0,1,0,6.21,6.21A6.21,6.21,0,0,0,30,26.1Zm-5.41,6.21a5.2,5.2,0,0,1,1.83-4.05,4.52,4.52,0,0,1,.88,3.09,4.8,4.8,0,0,1-2.56,2.21A5.7,5.7,0,0,1,24.54,32.31Zm4.92,5.38A5.21,5.21,0,0,1,25,34.4c.87-.25,2.66-.73,3.72.12A4.77,4.77,0,0,1,29.46,37.69ZM27,27.78A5.35,5.35,0,0,1,30,26.91a5,5,0,0,1,2.83.8A4.69,4.69,0,0,1,30,29.66,4.89,4.89,0,0,1,27,27.78Zm3.31,9.92a4.78,4.78,0,0,1,.77-3.18c1.1-.88,3-.35,3.83-.1A5.27,5.27,0,0,1,30.32,37.7Zm4.87-4.1a4.86,4.86,0,0,1-2.65-2.25,4.52,4.52,0,0,1,.93-3.14,5.15,5.15,0,0,1,1.88,4.1A5.43,5.43,0,0,1,35.19,33.6Z"/><path class="cls-9" d="M30,31.16A1.08,1.08,0,1,0,31,32.24,1.08,1.08,0,0,0,30,31.16Z"/><path class="cls-5" d="M30,31.75a.49.49,0,1,0,0,1,.49.49,0,1,0,0-1Z"/></g></g></svg>