<svg xmlns="http://www.w3.org/2000/svg" viewBox="0 0 132.87 40.54"><defs><style>.cls-1{fill:#f5b400;}.cls-2{fill:#fbcb43;}.cls-3{fill:#ffe6a9;}.cls-4{fill:#dc4437;}.cls-5{fill:#d12c24;}.cls-6{fill:#515151;}.cls-7{fill:#444;}.cls-8{fill:#848484;}.cls-9{fill:#fff;}.cls-10{fill:#ccc;}</style></defs><title>car-1</title><g id="Layer_2" data-name="Layer 2"><g id="Layer_1-2" data-name="Layer 1"><path class="cls-1" d="M84.63,32c-9-.43-46.64,2.45-46.64,2.45L36.84,37C57.25,36.74,82,36.34,100,35.84l-2-2.42S89.73,32.28,84.63,32Z"/><path class="cls-2" d="M121.23,9c-5.69-.76-11.64-3.73-16.38-5.29C98,1.47,90.43-.69,78.52.21,66.89,1.09,47.1,11.34,47.1,11.34S26.5,10.75,13.74,15c0,1.41-.27,3-1.76,3.73A40.82,40.82,0,0,0,5.56,22.6,9.5,9.5,0,0,1,1,23.49c-.31.4-.46.63-.46.63L0,37.45S16.17,37.3,36.84,37L38,34.49S75.66,31.61,84.63,32c5.1.24,13.32,1.38,13.32,1.38l2,2.42c4.53-.13,8.63-.26,12.11-.4,3.67-.15,8.75-1.92,13-3.69-.43-1.95-1-5.24-.78-6.88.54-3.21,2-3.4,2.54-7.76a2.94,2.94,0,0,1,1.45-2.33,4.23,4.23,0,0,1,.66-3.41,5.23,5.23,0,0,1,2.19-1.15L131,9A75.24,75.24,0,0,1,121.23,9Z"/><path class="cls-3" d="M1,23.49a9.5,9.5,0,0,0,4.53-.89A40.82,40.82,0,0,1,12,18.72c1.49-.7,1.81-2.32,1.76-3.73A27.86,27.86,0,0,0,1,23.49Z"/><path class="cls-1" d="M129.4,17.11a4,4,0,0,1-1.13-2.33,2.94,2.94,0,0,0-1.45,2.33c-.53,4.36-2,4.55-2.54,7.76-.27,1.64.35,4.93.78,6.88,4.37-1.82,7.81-3.64,7.81-3.64l-1-10.15A4,4,0,0,1,129.4,17.11Z"/><path class="cls-4" d="M128.93,11.37a4.23,4.23,0,0,0-.66,3.41,5.45,5.45,0,0,1,3.25-.48l-.4-4.08A5.23,5.23,0,0,0,128.93,11.37Z"/><path class="cls-5" d="M128.27,14.78a4,4,0,0,0,1.13,2.33,4,4,0,0,0,2.48.85l-.36-3.66A5.45,5.45,0,0,0,128.27,14.78Z"/><path class="cls-6" d="M80.87,2.47c-11.72.41-22.6,8.92-22.6,8.92s19.12.78,32.18-1S106.23,6.5,106.23,6.5,91.07,2.11,80.87,2.47Z"/><path class="cls-1" d="M44.15,16.78s6.26,10,13.7,10.49,14.84.58,26.09-3.49c7.24-2.61,14-9.48,14-9.48s-11.47,1.81-23,2.48S44.15,16.78,44.15,16.78Z"/><path class="cls-6" d="M126.21,28.82c-2.09,2.47-10.67,3.61-10.67,3.61l-1,2.76s8.24-1.75,11.44-2.76,6.85-4.32,6.85-4.32l-.39-4A25.42,25.42,0,0,0,126.21,28.82Z"/><path class="cls-7" d="M106,15.82A13,13,0,0,0,95.19,36l3.54-.1c1.81-.07,16.78-.88,16.78-.88l2.2-.49A13,13,0,0,0,106,15.82Z"/><path class="cls-7" d="M29.1,15.82A13,13,0,0,0,17.85,35.33a14.77,14.77,0,0,0,1.33,1.91L38.91,37a10,10,0,0,0,2.33-3.56A13,13,0,0,0,29.1,15.82Z"/><path class="cls-8" d="M76.35,4.49c-4.81,1.19-13.61,5.63-13.61,5.63,2.17,0,10.52-.31,17.07-.57,1.84-.07,7.3-.69,7.3-.69l2.27-4.34S81.92,3.1,76.35,4.49Z"/><path class="cls-8" d="M91.42,8.51,102,6.81S94.8,5.4,92.9,5.12Z"/><path class="cls-8" d="M46.85,11.39h8.68A57.73,57.73,0,0,1,62.2,7.16,109.88,109.88,0,0,1,72.51,2.69L71.35,1.55C59.8,4.68,46.85,11.39,46.85,11.39Z"/><path class="cls-7" d="M0,25.8l.47,7.62H8.66c0-.12-.05-.24-.08-.37C6.82,26.63,0,25.8,0,25.8Z"/><path class="cls-6" d="M55.21,14.9c-1,2.39-.68,13.59-.51,18.42.22,0,.38,0,.57,0-.16-4.83-.43-15.94.46-18.19,1-2.46,4.37-4.36,4.41-4.38l-.07-.61C59.92,10.2,56.26,12.25,55.21,14.9Z"/><path class="cls-6" d="M89,9.88l-.31.47a14.18,14.18,0,0,1,4,4.09c2.17,3.87-2.68,15.39-3.82,18l.61,0c1.32-3,6-14.21,3.71-18.27A14.46,14.46,0,0,0,89,9.88Z"/><path class="cls-9" d="M106,21.83a6.8,6.8,0,1,0,6.8,6.79A6.79,6.79,0,0,0,106,21.83Z"/><path class="cls-6" d="M106,16.84a11.79,11.79,0,1,0,11.79,11.78A11.77,11.77,0,0,0,106,16.84Zm0,20.39a8.61,8.61,0,1,1,8.61-8.61A8.61,8.61,0,0,1,106,37.23Z"/><circle class="cls-10" cx="106.04" cy="28.62" r="9.98" transform="translate(-3.74 25.02) rotate(-13.23)"/><path class="cls-7" d="M106,21.45a7.17,7.17,0,1,0,7.17,7.17A7.17,7.17,0,0,0,106,21.45Z"/><path class="cls-10" d="M106,25.35a3.27,3.27,0,1,0,3.27,3.27A3.28,3.28,0,0,0,106,25.35Z"/><polygon class="cls-10" points="106.49 25.79 108.69 27.67 112.14 22.81 110.51 21.55 106.49 25.79"/><path class="cls-7" d="M110,23.2l-1.86,2.3a.38.38,0,0,0,.59.48l1.86-2.31a.38.38,0,1,0-.59-.47Z"/><polygon class="cls-10" points="99.95 22.84 103.4 27.7 105.6 25.82 101.58 21.58 99.95 22.84"/><path class="cls-7" d="M102.1,23.22a.38.38,0,0,0-.58.48l1.86,2.3a.38.38,0,1,0,.59-.47Z"/><polygon class="cls-10" points="98.26 31.32 99.22 33.14 104.61 30.59 103.13 28.09 98.26 31.32"/><path class="cls-7" d="M102.57,29.65,100,31.09a.38.38,0,0,0-.15.51.39.39,0,0,0,.52.15l2.59-1.44a.38.38,0,1,0-.36-.66Z"/><polygon class="cls-10" points="107.62 30.7 113 33.26 113.96 31.44 109.09 28.21 107.62 30.7"/><path class="cls-7" d="M112.25,31.2l-2.59-1.43a.38.38,0,1,0-.37.66l2.6,1.43a.37.37,0,0,0,.51-.14A.39.39,0,0,0,112.25,31.2Z"/><polygon class="cls-10" points="105.01 37.02 107.07 36.96 107.49 31.13 104.59 31.07 105.01 37.02"/><path class="cls-7" d="M106,32a.38.38,0,0,0-.37.38l0,3a.38.38,0,0,0,.38.38.39.39,0,0,0,.38-.38l0-3A.37.37,0,0,0,106,32Z"/><circle class="cls-6" cx="106.04" cy="28.62" r="1.29"/><path class="cls-9" d="M29.1,22a6.79,6.79,0,1,0,6.79,6.79A6.79,6.79,0,0,0,29.1,22Z"/><path class="cls-6" d="M29.1,17A11.79,11.79,0,1,0,40.88,28.75,11.79,11.79,0,0,0,29.1,17Zm0,20.39a8.6,8.6,0,1,1,8.6-8.6A8.61,8.61,0,0,1,29.1,37.35Z"/><circle class="cls-10" cx="29.1" cy="28.75" r="9.98" transform="translate(-5.85 7.49) rotate(-13.34)"/><path class="cls-7" d="M29.1,21.58a7.17,7.17,0,1,0,7.17,7.17A7.17,7.17,0,0,0,29.1,21.58Z"/><path class="cls-10" d="M29.1,25.48a3.27,3.27,0,1,0,3.27,3.27A3.26,3.26,0,0,0,29.1,25.48Z"/><polygon class="cls-10" points="29.54 25.92 31.74 27.8 35.19 22.94 33.56 21.68 29.54 25.92"/><path class="cls-7" d="M33,23.32l-1.87,2.31a.38.38,0,0,0,.59.48l1.86-2.31a.38.38,0,1,0-.58-.48Z"/><polygon class="cls-10" points="23 22.97 26.45 27.83 28.65 25.95 24.63 21.71 23 22.97"/><path class="cls-7" d="M25.16,23.35a.38.38,0,0,0-.53-.06.37.37,0,0,0-.06.53l1.86,2.31a.38.38,0,0,0,.59-.47Z"/><polygon class="cls-10" points="21.31 31.45 22.27 33.27 27.66 30.71 26.19 28.22 21.31 31.45"/><path class="cls-7" d="M25.62,29.78,23,31.21a.39.39,0,0,0-.14.52.37.37,0,0,0,.51.14L26,30.44a.38.38,0,1,0-.36-.66Z"/><polygon class="cls-10" points="30.67 30.83 36.06 33.39 37.01 31.57 32.14 28.34 30.67 30.83"/><path class="cls-7" d="M35.3,31.33,32.71,29.9a.37.37,0,0,0-.51.14.39.39,0,0,0,.14.52L34.94,32a.38.38,0,1,0,.36-.66Z"/><polygon class="cls-10" points="28.07 37.15 30.12 37.09 30.54 31.26 27.65 31.2 28.07 37.15"/><path class="cls-7" d="M29.09,32.15a.38.38,0,0,0-.38.38l0,3a.38.38,0,1,0,.76,0l0-3A.38.38,0,0,0,29.09,32.15Z"/><path class="cls-6" d="M29.1,27.46a1.29,1.29,0,1,0,1.29,1.29A1.29,1.29,0,0,0,29.1,27.46Z"/></g></g></svg>